<?xml version="1.0" encoding="UTF-8"?>
          <svg version="1.1" xmlns="http://www.w3.org/2000/svg" width="240" height="240" viewBox="0 0 1024 1024">
          <path d="M0 0 C337.92 0 675.84 0 1024 0 C1024 337.92 1024 675.84 1024 1024 C686.08 1024 348.16 1024 0 1024 C0 686.08 0 348.16 0 0 Z " fill="#E2E0DA" transform="translate(0,0)"/>
          <path d="M0 0 C0.62132812 0.53238281 1.24265625 1.06476562 1.8828125 1.61328125 C2.50414062 2.11472656 3.12546875 2.61617187 3.765625 3.1328125 C15.89522844 13.92343374 18.55740392 31.88474493 19.7019043 47.28857422 C20.04434631 53.58192834 20.12732166 59.87415815 20.1328125 66.17578125 C20.13348724 66.87815918 20.13416199 67.58053711 20.13485718 68.30419922 C20.10371794 88.7967271 18.56637948 113.01133466 3.88671875 128.75390625 C-7.26616633 139.48930366 -19.0538371 141.0961364 -33.81640625 140.890625 C-45.90517154 140.46245904 -54.55186433 135.58901277 -62.7421875 126.98828125 C-75.60777262 111.39718493 -76.78490686 91.61038459 -76.58374023 72.2734375 C-76.55478183 69.24813636 -76.56318636 66.22459983 -76.57617188 63.19921875 C-76.5534877 41.83658394 -75.73938621 19.62174268 -60.05078125 3.48828125 C-44.51803959 -11.20704303 -17.33608137 -13.28220683 0 0 Z " fill="#141512" transform="translate(356.1171875,634.38671875)"/>
          <path d="M0 0 C62.65 0 62.65 0 76.9296875 13.875 C94.14578413 32.19942903 92.65338586 59.63546882 92 83 C91.0796626 101.51890384 86.4794382 118.79947996 72.6171875 131.77734375 C52.25671343 149.06855233 25.23755306 144 0 144 C0 96.48 0 48.96 0 0 Z " fill="#151613" transform="translate(174,629)"/>
          <path d="M0 0 C0.85072083 -0.00335861 1.70144165 -0.00671722 2.57794189 -0.01017761 C5.39458673 -0.01968848 8.21117213 -0.02163082 11.02783203 -0.02270508 C12.98454818 -0.02591766 14.94126409 -0.02928174 16.89797974 -0.03279114 C21.00197913 -0.03878282 25.10595747 -0.04063101 29.20996094 -0.04003906 C34.46806247 -0.03993746 39.72602891 -0.0535875 44.98409843 -0.07081127 C49.02642436 -0.08193162 53.06871763 -0.08395826 57.11105728 -0.08342934 C59.04952586 -0.08460948 60.98799529 -0.0890332 62.92644882 -0.0967617 C65.63856201 -0.10656181 68.35038206 -0.10368339 71.0625 -0.09765625 C71.86267548 -0.10327576 72.66285095 -0.10889526 73.48727417 -0.11468506 C79.15485688 -0.08268891 82.69306828 0.37917431 86.94476318 4.19548035 C89.33875482 8.31100769 89.1928327 11.66154016 89.11474609 16.34179688 C89.11522823 17.274145 89.11571037 18.20649313 89.11620712 19.16709423 C89.11322783 22.17713639 89.08279741 25.18618064 89.05126953 28.19604492 C89.04538642 30.05749027 89.04130692 31.91894222 89.0390625 33.78039551 C89.01811377 40.67295265 88.96226869 47.56536802 88.91064453 54.45776367 C88.82814453 69.86463867 88.74564453 85.27151367 88.66064453 101.14526367 C55.66064453 101.14526367 22.66064453 101.14526367 -11.33935547 101.14526367 C-11.33935547 68.14526367 -11.33935547 35.14526367 -11.33935547 1.14526367 C-7.53480942 -0.12291834 -3.96397691 -0.00223373 0 0 Z " fill="#161613" transform="translate(774.33935546875,180.854736328125)"/>
          <path d="M0 0 C8.58 0 17.16 0 26 0 C26.93199219 2.17851562 27.86398437 4.35703125 28.82421875 6.6015625 C35.17133043 21.4322102 41.52565622 36.25969979 47.9375 51.0625 C48.3387056 51.98879715 48.3387056 51.98879715 48.74801636 52.93380737 C52.3593549 61.26646893 56.00301358 69.58392195 59.73022461 77.86547852 C60.93835669 80.55718739 62.06613291 83.19839872 63 86 C63.33 57.62 63.66 29.24 64 0 C72.25 0 80.5 0 89 0 C89 48.18 89 96.36 89 146 C80.75 146 72.5 146 64 146 C57.56546164 133.60625169 52.12805022 120.8555802 46.6875 108 C45.34150495 104.82441887 43.99407994 101.64946795 42.64350891 98.47583008 C41.81129572 96.5198148 40.98152182 94.56275822 40.15519714 92.60424805 C35.6355882 81.97162716 30.78626693 71.52978725 26 61 C26 89.05 26 117.1 26 146 C17.42 146 8.84 146 0 146 C0 97.82 0 49.64 0 0 Z " fill="#151512" transform="translate(482,242)"/>
          <path d="M0 0 C8.91 0 17.82 0 27 0 C28.64935547 3.78791016 28.64935547 3.78791016 30.33203125 7.65234375 C31.43373114 10.18175705 32.53559933 12.71109696 33.63751221 15.24041748 C34.42025678 17.03713973 35.20293104 18.83389262 35.98553467 20.63067627 C40.6725722 31.3905032 45.37858953 42.14122004 50.125 52.875 C53.19289169 59.82645074 56.21750538 66.79226076 59.125 73.8125 C59.40875488 74.49489746 59.69250977 75.17729492 59.98486328 75.88037109 C61.2294204 78.92218504 62.19973733 81.79894932 63 85 C63.33 56.95 63.66 28.9 64 0 C72.25 0 80.5 0 89 0 C89 47.52 89 95.04 89 144 C80.75 144 72.5 144 64 144 C59.38459262 134.11088624 54.96438844 124.14776628 50.59494019 114.14822388 C44.5983121 100.42793502 38.57004433 86.72262987 32.4375 73.0625 C32.16219452 72.44890625 31.88688904 71.8353125 31.60324097 71.203125 C28.88608077 65.061841 28.88608077 65.061841 26 59 C26 86.72 26 114.44 26 143 C17.42 143 8.84 143 0 143 C0 95.81 0 48.62 0 0 Z " fill="#141512" transform="translate(391,629)"/>
          <path d="M0 0 C10.89 0 21.78 0 33 0 C41.93054712 35.41619259 50.77064775 70.83952874 58.99291992 106.42835999 C60.18091737 111.55435419 61.40497733 116.66951748 62.66699219 121.77783203 C62.9449765 122.91007706 63.22296082 124.04232208 63.5093689 125.20887756 C64.04713899 127.39330427 64.59048625 129.57636805 65.14028931 131.75779724 C65.38322723 132.74723831 65.62616516 133.73667938 65.87646484 134.75610352 C66.09362152 135.62525894 66.3107782 136.49441437 66.53451538 137.38990784 C67 140 67 140 67 146 C57.76 146 48.52 146 39 146 C36.76393202 137.05572809 34.80810143 128.04050713 33 119 C22.11 119 11.22 119 0 119 C-1.60245321 126.76289596 -1.60245321 126.76289596 -3.20092773 134.52661133 C-3.40145752 135.4936499 -3.6019873 136.46068848 -3.80859375 137.45703125 C-4.01282959 138.44678955 -4.21706543 139.43654785 -4.42749023 140.45629883 C-5 143 -5 143 -6 146 C-14.91 146 -23.82 146 -33 146 C-30.39117779 132.64896869 -27.68374258 119.35749035 -24.5769043 106.11450195 C-22.25020751 96.16673759 -20.03527617 86.19589547 -17.83044434 76.22052002 C-14.30125541 60.25809299 -10.72880133 44.30652841 -7.0625 28.375 C-6.87722748 27.56656647 -6.69195496 26.75813293 -6.50106812 25.92520142 C-5.97322985 23.62403693 -5.44222898 21.32362614 -4.91015625 19.0234375 C-4.76053436 18.37004898 -4.61091248 17.71666046 -4.45675659 17.04347229 C-3.12259878 11.30862628 -1.55324094 5.69521678 0 0 Z " fill="#151512" transform="translate(403,242)"/>
          <path d="M0 0 C10.56 0 21.12 0 32 0 C35.37497306 7.87493715 35.37497306 7.87493715 36.359375 12.09765625 C37.32914595 16.25753358 38.29917202 20.41735135 39.26928711 24.57714844 C40.34670133 29.1973345 41.42338412 33.81768968 42.49926758 38.43823242 C45.71973177 52.2621345 48.95698219 66.08198328 52.2091713 79.89845467 C52.83963074 82.57721995 53.4697855 85.25605671 54.099823 87.93492126 C54.30891737 88.82397124 54.51801174 89.71302122 54.73344231 90.62901211 C55.15765614 92.43278926 55.5818568 94.2365695 56.00604439 96.04035282 C57.09190473 100.65720101 58.17861956 105.27384555 59.2668457 109.89013672 C60.34018687 114.44352742 61.41139111 118.997416 62.48111153 123.55165863 C62.88502069 125.26950301 63.28972077 126.98716163 63.6952343 128.70462799 C64.25451159 131.07376976 64.81106027 133.44353647 65.36694336 135.81347656 C65.61694344 136.86810844 65.61694344 136.86810844 65.87199402 137.94404602 C67 142.77190404 67 142.77190404 67 145 C57.76 145 48.52 145 39 145 C36.92689778 136.01655705 34.93176275 127.01489283 33 118 C22.11 117.67 11.22 117.34 0 117 C-1.60259097 125.091987 -1.60259097 125.091987 -3.20092773 133.18481445 C-3.40145752 134.1924585 -3.6019873 135.20010254 -3.80859375 136.23828125 C-4.01282959 137.26993408 -4.21706543 138.30158691 -4.42749023 139.36450195 C-5 142 -5 142 -6 145 C-14.58 145 -23.16 145 -32 145 C-31.33372602 139.66980817 -30.59635688 134.70727698 -29.46875 129.49609375 C-29.31711395 128.79238647 -29.16547791 128.0886792 -29.00924683 127.36364746 C-28.51004624 125.0540702 -28.00527808 122.74575469 -27.5 120.4375 C-27.14403473 118.79956234 -26.78807787 117.16162285 -26.43212891 115.52368164 C-23.6583855 102.8080395 -20.74775662 90.12536671 -17.79568481 77.45010376 C-15.40733269 67.19486324 -13.09781097 56.93129683 -10.9375 46.625 C-7.65794014 30.99110955 -3.81240313 15.51253689 0 0 Z " fill="#141411" transform="translate(198,436)"/>
          <path d="M0 0 C1.53817383 -0.03673828 1.53817383 -0.03673828 3.10742188 -0.07421875 C14.03010052 -0.11561867 23.19063233 2.97631233 31.3125 10.375 C38.74215296 17.97350871 42.350088 28.09999453 42.359375 38.65234375 C42.34390625 39.88082031 42.3284375 41.10929687 42.3125 42.375 C38.91750696 42.88081854 35.52138518 43.37862244 32.125 43.875 C31.16529297 44.01808594 30.20558594 44.16117187 29.21679688 44.30859375 C27.81977539 44.51162109 27.81977539 44.51162109 26.39453125 44.71875 C25.54093018 44.84443359 24.6873291 44.97011719 23.80786133 45.09960938 C21.28780325 45.37772556 18.84564218 45.422608 16.3125 45.375 C16.16554688 44.18003906 16.16554688 44.18003906 16.015625 42.9609375 C14.94612684 35.38225223 13.77595909 30.83845909 8.3125 25.375 C4.11851096 24.19787668 0.06195781 23.69946679 -4.0546875 25.2890625 C-7.74777104 27.4940904 -10.13915064 29.25865657 -11.6875 33.375 C-12.43562605 39.26284919 -12.19808596 44.43823849 -8.6875 49.375 C-3.51076781 54.54160465 2.10399478 58.22040873 8.5 61.6875 C25.3316364 71.1498745 38.99969164 81.43657491 45.3125 100.375 C46.12175159 114.95709123 44.90120857 127.75480437 34.71875 139.16015625 C25.32658389 147.8213283 13.81817482 150.73872285 1.375 150.625 C0.53259766 150.63273438 -0.30980469 150.64046875 -1.17773438 150.6484375 C-13.12379041 150.61165211 -23.60616657 147.3609327 -32.5625 139.125 C-41.66564348 129.23597363 -42.6875 118.39040627 -42.6875 105.375 C-33.7775 105.375 -24.8675 105.375 -15.6875 105.375 C-15.0275 109.005 -14.3675 112.635 -13.6875 116.375 C-11.18677099 121.46907761 -7.99622018 124.46902947 -2.6875 126.375 C2.60535867 127.28614975 6.84578342 126.35281105 11.3125 123.375 C15.08646281 119.64183679 17.15553894 116.45473407 17.5625 111.0625 C17.2088398 105.84601202 15.54376333 102.8235451 12.1875 98.875 C5.74513146 93.2729404 -1.70550684 89.15778726 -9.125 85 C-20.11788884 78.70114716 -29.28943452 72.62677032 -35.6875 61.375 C-36.12191406 60.61316406 -36.55632812 59.85132813 -37.00390625 59.06640625 C-41.79205081 48.63926217 -41.6220739 33.00265773 -38.25 22.125 C-34.12063665 13.08111266 -26.80347269 6.19320846 -17.6875 2.375 C-16.84960938 2.01148438 -16.01171875 1.64796875 -15.1484375 1.2734375 C-10.09682602 -0.03792891 -5.19843626 0.00641386 0 0 Z " fill="#151512" transform="translate(212.6875,239.625)"/>
          <path d="M0 0 C9.28972138 6.33154195 13.47059664 14.82061847 15.72265625 25.6796875 C15.9895983 29.05090729 15.99645209 32.31047752 15.72265625 35.6796875 C12.87674706 36.6283239 10.58875228 36.95719362 7.6171875 37.21484375 C6.14282227 37.34536133 6.14282227 37.34536133 4.63867188 37.47851562 C3.10243164 37.6090332 3.10243164 37.6090332 1.53515625 37.7421875 C-0.01848633 37.87850586 -0.01848633 37.87850586 -1.60351562 38.01757812 C-4.16119419 38.24152233 -6.71911834 38.46209423 -9.27734375 38.6796875 C-9.40020752 37.88643066 -9.52307129 37.09317383 -9.6496582 36.27587891 C-10.4658292 31.11449137 -11.19715338 27.01995575 -14.27734375 22.6796875 C-14.27734375 22.0196875 -14.27734375 21.3596875 -14.27734375 20.6796875 C-19.62338865 18.27251719 -24.48329401 17.83136396 -30.27734375 18.6796875 C-33.94809398 20.53288179 -35.95893863 22.72447213 -37.27734375 26.6796875 C-37.65931556 31.4249527 -37.91122232 36.00177364 -36.21484375 40.4921875 C-31.26838113 46.07690337 -25.49825338 49.94453915 -19.02734375 53.5546875 C-12.104696 57.52664937 -5.56213017 61.73940763 0.72265625 66.6796875 C1.44839844 67.22882813 2.17414063 67.77796875 2.921875 68.34375 C11.39449449 75.15412224 17.62814584 85.12698513 19.0222168 96.02050781 C19.15806531 98.39501122 19.19018798 100.73911026 19.16015625 103.1171875 C19.1540332 103.94758545 19.14791016 104.7779834 19.14160156 105.63354492 C18.98012172 111.97162859 17.95956664 117.14669881 14.72265625 122.6796875 C14.12453125 123.7315625 13.52640625 124.7834375 12.91015625 125.8671875 C5.51732419 135.3722573 -3.41892568 140.96032252 -15.27734375 143.6796875 C-29.36397339 145.05943273 -42.49566815 143.8646079 -54.24609375 135.37109375 C-61.34179947 129.46255418 -65.65018906 122.78151759 -68.02734375 113.8671875 C-68.42324055 108.81950324 -68.27734375 103.74287332 -68.27734375 98.6796875 C-59.36734375 98.6796875 -50.45734375 98.6796875 -41.27734375 98.6796875 C-40.28734375 105.1146875 -40.28734375 105.1146875 -39.27734375 111.6796875 C-36.5858705 115.97149619 -34.25454722 118.49463905 -29.27734375 119.6796875 C-23.81582584 120.1853836 -20.08956514 119.31278977 -15.27734375 116.6796875 C-10.41544597 111.56190037 -9.91410196 107.22356324 -10.00390625 100.3984375 C-10.61050561 94.36710673 -14.74203962 91.01440346 -19.09887695 87.31860352 C-24.18221131 83.4942817 -29.9708441 80.70790728 -35.56445312 77.7109375 C-44.33128256 72.90687742 -52.85187732 67.52599168 -58.71484375 59.2421875 C-59.33230469 58.39785156 -59.94976563 57.55351562 -60.5859375 56.68359375 C-64.75493032 49.27953952 -65.83596431 42.29316033 -65.77734375 33.8671875 C-65.77089844 32.89885986 -65.76445313 31.93053223 -65.7578125 30.93286133 C-65.47658105 19.90840356 -62.27639983 11.6853545 -54.59765625 3.65625 C-40.20598313 -8.6033234 -16.11699254 -9.34398538 0 0 Z " fill="#141512" transform="translate(629.27734375,439.3203125)"/>
          <path d="M0 0 C8.93383524 7.58459033 13.37946162 15.40455857 15.1640625 27.01171875 C15.25313967 29.6876698 15.21891039 32.33283238 15.1640625 35.01171875 C11.58133523 35.51612668 7.99779073 36.01447646 4.4140625 36.51171875 C3.39828125 36.65480469 2.3825 36.79789062 1.3359375 36.9453125 C0.35625 37.08066406 -0.6234375 37.21601563 -1.6328125 37.35546875 C-2.53354492 37.48115234 -3.43427734 37.60683594 -4.36230469 37.73632812 C-6.8359375 38.01171875 -6.8359375 38.01171875 -10.8359375 38.01171875 C-10.93390625 37.14289063 -11.031875 36.2740625 -11.1328125 35.37890625 C-12.1433316 26.39482921 -12.1433316 26.39482921 -16.8359375 19.01171875 C-20.48838836 16.89714194 -23.66419961 16.5111102 -27.8359375 17.01171875 C-31.4582442 18.44056041 -34.1508171 20.26029638 -36.7734375 23.13671875 C-38.67851039 28.29162187 -38.92649919 33.15616906 -36.9453125 38.34375 C-31.54648164 47.62908862 -21.0692118 52.67535771 -12.1484375 58.07421875 C-6.30412943 61.62733246 -0.99538845 65.52563529 4.1640625 70.01171875 C4.82277344 70.57503906 5.48148438 71.13835937 6.16015625 71.71875 C13.45338414 78.41597217 17.63712531 87.74321922 18.46484375 97.58984375 C18.50800943 111.11509027 16.23915354 121.45419638 7.1015625 131.63671875 C-1.57911796 139.91937674 -13.33860403 143.41929487 -25.0859375 143.32421875 C-26.19400757 143.31575928 -26.19400757 143.31575928 -27.32446289 143.30712891 C-39.07695061 143.04950519 -49.30982774 140.00715869 -58.09375 131.9375 C-67.72034573 121.76030563 -69.8359375 110.72647293 -69.8359375 97.01171875 C-60.9259375 96.68171875 -52.0159375 96.35171875 -42.8359375 96.01171875 C-42.1759375 99.97171875 -41.5159375 103.93171875 -40.8359375 108.01171875 C-39.15757452 113.14005009 -36.60723491 115.5022405 -32.01171875 118.08984375 C-28.45670339 119.59609802 -25.59771459 119.90668699 -21.8359375 119.01171875 C-17.2202827 117.13065297 -14.45901758 115.02422387 -11.8359375 110.76171875 C-10.30572289 105.02341395 -9.60826457 99.77227192 -12.3984375 94.32421875 C-18.29386786 85.73253082 -27.90626593 81.33680184 -36.76757812 76.3984375 C-49.26150804 69.30194853 -60.22852686 61.38641077 -65.24487305 47.35839844 C-66.4252375 42.67204439 -66.30643503 37.94235872 -66.2734375 33.13671875 C-66.29341797 32.11191406 -66.31339844 31.08710938 -66.33398438 30.03125 C-66.32701581 19.06272871 -63.02595565 11.21811201 -55.4765625 3.28125 C-41.49709119 -8.73365064 -15.28783091 -10.71832773 0 0 Z " fill="#141512" transform="translate(726.8359375,439.98828125)"/>
          <path d="M0 0 C8.58850235 6.32993426 13.21299207 16.20810415 14.890625 26.57421875 C15.06108413 27.95756013 15.22506136 29.3417144 15.3828125 30.7265625 C15.46917969 31.42072266 15.55554688 32.11488281 15.64453125 32.83007812 C16.08292179 36.49377051 16.2578125 39.96010216 16.2578125 43.6640625 C7.3478125 43.6640625 -1.5621875 43.6640625 -10.7421875 43.6640625 C-11.4921875 36.0390625 -11.4921875 36.0390625 -11.69824219 33.67333984 C-12.39679094 27.44803771 -14.67652534 23.48953138 -19.4296875 19.2890625 C-23.74876422 17.17027015 -27.02512947 16.62646936 -31.7421875 17.6640625 C-36.96462619 20.18778067 -40.74408745 23.89910547 -42.92797852 29.29077148 C-46.68618551 40.24535325 -46.05011587 52.08676748 -46.00292969 63.50854492 C-45.99222355 66.59118375 -46.00286357 69.67323839 -46.015625 72.75585938 C-46.62728007 95.27643513 -46.62728007 95.27643513 -36.7421875 114.6640625 C-32.24309903 117.36927135 -27.84808659 117.63625018 -22.7421875 116.6640625 C-17.50573498 113.92702597 -14.58379179 110.25797695 -12.8046875 104.6640625 C-11.81335297 100.67246386 -11.32864341 96.7692539 -10.7421875 92.6640625 C-1.8321875 92.6640625 7.0778125 92.6640625 16.2578125 92.6640625 C16.2578125 107.75383172 14.00898432 120.66809665 3.5078125 132.0390625 C-0.7198947 135.9914018 -5.40165565 138.50441169 -10.7421875 140.6640625 C-11.63550781 141.03015625 -12.52882813 141.39625 -13.44921875 141.7734375 C-24.80702201 144.84529888 -39.1953021 143.6984823 -49.7421875 138.6640625 C-60.76827212 132.18924334 -67.96697327 121.70742654 -71.7421875 109.6640625 C-75.04868077 96.39658531 -75.92894105 83.44365225 -75.92749023 69.83496094 C-75.92966339 67.56425839 -75.94784225 65.29405376 -75.96679688 63.0234375 C-76.04771037 42.49132446 -74.24652956 20.62995104 -59.9375 4.6484375 C-43.7503878 -10.79984385 -18.43051489 -11.72850948 0 0 Z " fill="#141512" transform="translate(346.7421875,247.3359375)"/>
          <path d="M0 0 C10.32230156 7.31233883 15.10385844 17.74017235 17.2265625 29.94140625 C17.70928161 35.10366117 17.55859375 40.30741233 17.55859375 45.4921875 C8.97859375 45.4921875 0.39859375 45.4921875 -8.44140625 45.4921875 C-8.93640625 39.5521875 -8.93640625 39.5521875 -9.44140625 33.4921875 C-11.47636681 26.11283973 -11.47636681 26.11283973 -16.62890625 20.8671875 C-20.81382895 18.98127813 -24.94519076 18.70452931 -29.44140625 19.4921875 C-34.09467666 21.59932882 -36.50602241 24.25582255 -38.57226562 28.94604492 C-42.47160662 40.36914246 -42.8939954 51.83388793 -42.77758789 63.77978516 C-42.75399568 66.35741689 -42.75705481 68.93400598 -42.76367188 71.51171875 C-42.75114641 79.65016333 -42.49015189 87.7181587 -41.609375 95.8125 C-41.5405159 96.48707245 -41.4716568 97.1616449 -41.40071106 97.85665894 C-40.48717096 105.24926004 -38.13180771 110.53132469 -32.44140625 115.4921875 C-27.99870022 117.71354051 -22.26587535 117.00160349 -17.44140625 116.4921875 C-12.93878201 113.70056047 -11.59176213 110.02700919 -10.01953125 105.1640625 C-9.18925375 101.32683407 -8.87496333 97.39420121 -8.44140625 93.4921875 C0.46859375 93.4921875 9.37859375 93.4921875 18.55859375 93.4921875 C18.55859375 107.39755577 17.5596424 117.11101669 9.55859375 128.4921875 C8.96046875 129.3996875 8.36234375 130.3071875 7.74609375 131.2421875 C-0.44515184 139.66746868 -10.8563768 143.53825179 -22.4543457 143.96484375 C-36.18624278 144.11581778 -46.5085518 141.08400335 -56.53125 131.4921875 C-69.91312129 117.53716344 -72.53669991 95.68528282 -72.64453125 76.99609375 C-72.65023132 76.20428207 -72.6559314 75.4124704 -72.6618042 74.59666443 C-72.67119496 72.92684233 -72.6777644 71.2570022 -72.68164062 69.5871582 C-72.69126136 67.09226023 -72.72230586 64.59821807 -72.75390625 62.10351562 C-72.88738714 41.78385002 -70.08875753 20.68006166 -55.69140625 5.1796875 C-41.55022895 -8.20440956 -16.36704321 -10.10828589 0 0 Z " fill="#131411" transform="translate(443.44140625,439.5078125)"/>
          <path d="M0 0 C1.21612221 1.02961608 2.40566562 2.09169129 3.5625 3.1875 C4.10390625 3.68894531 4.6453125 4.19039063 5.203125 4.70703125 C15.43697539 15.32852748 16.5625 30.24513787 16.5625 44.1875 C7.9825 44.1875 -0.5975 44.1875 -9.4375 44.1875 C-10.25 37.0625 -10.25 37.0625 -10.48364258 34.85498047 C-11.17401529 29.29125546 -12.83943972 25.1464126 -16.375 20.8125 C-21.25506886 18.22307571 -26.03679046 18.47668748 -31.4375 19.1875 C-36.64287977 21.51133025 -39.2532609 25.01707893 -41.4375 30.1875 C-45.14305414 41.06008399 -44.63972072 52.79123547 -44.625 64.125 C-44.62472809 64.90518494 -44.62445618 65.68536987 -44.62417603 66.48919678 C-45.65523923 92.03462537 -45.65523923 92.03462537 -35.4375 114.1875 C-30.72862535 117.32674977 -25.92606346 117.23699275 -20.4375 116.1875 C-12.12662031 110.41843575 -11.30906888 101.54534438 -9.4375 92.1875 C-0.8575 92.1875 7.7225 92.1875 16.5625 92.1875 C17.0348742 108.09076461 14.44372864 120.4924559 3.43359375 132.40234375 C-5.35488836 140.7871795 -16.24813755 142.70330101 -28.01928711 142.60693359 C-41.54961999 142.13969474 -51.03482826 137.0972586 -60.1875 127.375 C-77.79494635 106.14009364 -74.97880356 69.90144726 -73.21484375 43.90625 C-71.45550059 26.06502361 -65.58882256 11.7123315 -51.83984375 -0.0859375 C-37.71145575 -10.23999847 -14.09496809 -9.91966622 0 0 Z " fill="#141512" transform="translate(342.4375,440.8125)"/>
          <path d="M0 0 C23.76 0 47.52 0 72 0 C72 8.25 72 16.5 72 25 C57.48 25 42.96 25 28 25 C28 36.55 28 48.1 28 60 C40.87 60 53.74 60 67 60 C67 67.92 67 75.84 67 84 C54.13 84 41.26 84 28 84 C28 95.88 28 107.76 28 120 C42.52 120 57.04 120 72 120 C72 128.25 72 136.5 72 145 C48.24 145 24.48 145 0 145 C0 97.15 0 49.3 0 0 Z " fill="#131411" transform="translate(477,436)"/>
          <path d="M0 0 C23.1 0 46.2 0 70 0 C70 8.25 70 16.5 70 25 C55.81 25 41.62 25 27 25 C27 36.22 27 47.44 27 59 C39.54 59 52.08 59 65 59 C65 67.25 65 75.5 65 84 C52.46 84 39.92 84 27 84 C27 95.55 27 107.1 27 119 C41.19 119 55.38 119 70 119 C70 127.25 70 135.5 70 144 C46.9 144 23.8 144 0 144 C0 96.48 0 48.96 0 0 Z " fill="#131411" transform="translate(502,629)"/>
          <path d="M0 0 C17.16 0 34.32 0 52 0 C52 9.24 52 18.48 52 28 C43.75 28 35.5 28 27 28 C27 36.58 27 45.16 27 54 C17.76 54 8.52 54 -1 54 C-1 62.91 -1 71.82 -1 81 C-27.07 81 -53.14 81 -80 81 C-80 72.75 -80 64.5 -80 56 C-62.18 56 -44.36 56 -26 56 C-26 47.09 -26 38.18 -26 29 C-34.91 29 -43.82 29 -53 29 C-53 19.76 -53 10.52 -53 1 C-43.76 1 -34.52 1 -25 1 C-25.33 9.91 -25.66 18.82 -26 28 C-17.42 28 -8.84 28 0 28 C0 18.76 0 9.52 0 0 Z " fill="#161613" transform="translate(787,311)"/>
          <path d="M0 0 C0.62648438 0.50273438 1.25296875 1.00546875 1.8984375 1.5234375 C14.00045592 12.35712211 16.67319923 30.25272608 17.8190918 45.67529297 C18.16153381 51.96864709 18.24450916 58.2608769 18.25 64.5625 C18.25067474 65.26487793 18.25134949 65.96725586 18.25204468 66.69091797 C18.22090544 87.18344585 16.68356698 111.39805341 2.00390625 127.140625 C-9.14897883 137.87602241 -20.9366496 139.48285515 -35.69921875 139.27734375 C-47.40664988 138.86268407 -55.94368494 134.2522133 -64 126 C-63.05560016 122.82338234 -62.40284183 121.29396566 -59.6875 119.3125 C-57 118 -57 118 -54.375 117.375 C-51.39787203 115.6513996 -51.37938549 114.66027576 -50.4375 111.4375 C-50.25058594 110.63183594 -50.06367188 109.82617188 -49.87109375 108.99609375 C-49.58363281 108.33738281 -49.29617188 107.67867187 -49 107 C-46.91015625 106.22265625 -46.91015625 106.22265625 -45 106 C-44.4225 106.78375 -43.845 107.5675 -43.25 108.375 C-40.39806108 111.70226208 -38.55238276 112.81406 -34.1953125 113.3359375 C-29.4426852 113.3964035 -25.88593515 113.39550676 -21.5 111.4375 C-12.23826592 102.40730927 -11.75688263 89.13130626 -11.6015625 76.87890625 C-11.58641646 73.81466241 -11.59010995 70.75147957 -11.60888672 67.68725586 C-11.62495278 64.57165626 -11.60897417 61.45735696 -11.58984375 58.34179688 C-11.15298304 38.07491495 -11.15298304 38.07491495 -19 20 C-20.051875 19.34 -21.10375 18.68 -22.1875 18 C-25 16 -25 16 -25.875 12.75 C-25.91625 11.8425 -25.9575 10.935 -26 10 C-27.65 10.33 -29.3 10.66 -31 11 C-30.67 9.68 -30.34 8.36 -30 7 C-30.99 7 -31.98 7 -33 7 C-33.144375 6.236875 -33.28875 5.47375 -33.4375 4.6875 C-33.9632594 1.91827092 -33.9632594 1.91827092 -35 -1 C-34.72428861 -3.00875442 -34.39764263 -5.01178687 -34 -7 C-20.83888216 -9.95063771 -10.60282393 -8.63782181 0 0 Z " fill="#141411" transform="translate(358,636)"/>
          <path d="M0 0 C9.24 0 18.48 0 28 0 C28 9.57 28 19.14 28 29 C18.76 29 9.52 29 0 29 C0 54.41 0 79.82 0 106 C-7.92 106 -15.84 106 -24 106 C-24 88.84 -24 71.68 -24 54 C-41.49 54 -58.98 54 -77 54 C-77.33 45.42 -77.66 36.84 -78 28 C-52.26 28 -26.52 28 0 28 C0 18.76 0 9.52 0 0 Z " fill="#141411" transform="translate(706,261)"/>
          <path d="M0 0 C6.64549679 3.76160196 8.74994114 8.11933895 10.734375 15.21484375 C12.19455522 21.93364596 12.49699802 28.42062323 12.55078125 35.27734375 C12.558853 36.27270645 12.56692474 37.26806915 12.57524109 38.29359436 C12.58902716 40.39729094 12.59977362 42.50100938 12.60766602 44.60473633 C12.6191353 46.72720025 12.63950597 48.84963649 12.66918945 50.97192383 C13.10253033 82.02479206 13.10253033 82.02479206 4.3125 93.875 C0.49319828 97.50333663 -2.57029006 98.18500458 -7.6875 98.375 C-12.81020653 98.17212053 -15.94342488 97.61907512 -19.6875 93.875 C-27.39726181 82.64077565 -27.16970874 66.31913744 -27.02368164 53.14550781 C-27.00000301 50.87528894 -27.00316872 48.60624992 -27.00976562 46.3359375 C-26.99543946 38.70738078 -26.64785486 31.18640245 -25.7734375 23.60546875 C-25.65365288 22.56501404 -25.65365288 22.56501404 -25.53144836 21.50354004 C-24.56022135 13.86418286 -22.94605657 7.52330062 -17.0625 2.3125 C-11.55718382 -1.93068037 -6.5412447 -1.99563397 0 0 Z " fill="#E2E0DA" transform="translate(334.6875,652.125)"/>
          <path d="M0 0 C0.86559036 0.00009567 1.73118073 0.00019135 2.6230011 0.00028992 C5.42979898 0.00400662 8.23624392 0.02290493 11.04296875 0.04296875 C12.95751839 0.04980715 14.87206923 0.05631733 16.78662109 0.0625 C29.96117999 0.12360258 43.07434155 0.48927849 56.23046875 1.23046875 C56.23046875 9.48046875 56.23046875 17.73046875 56.23046875 26.23046875 C41.38046875 26.56046875 26.53046875 26.89046875 11.23046875 27.23046875 C10.90046875 43.07046875 10.57046875 58.91046875 10.23046875 75.23046875 C1.45856616 75.85703322 -7.01780418 76.37472799 -15.76953125 76.23046875 C-15.8390908 67.3203791 -15.89237264 58.41038316 -15.92496777 49.50008106 C-15.94061307 45.36250519 -15.96183042 41.22511532 -15.99584961 37.08764648 C-16.02848384 33.09355024 -16.04639281 29.09963273 -16.05416298 25.10541344 C-16.05969922 23.58279291 -16.07051025 22.060182 -16.08672142 20.53763771 C-16.10855039 18.40223805 -16.11149599 16.26757365 -16.11010742 14.13208008 C-16.11676926 12.91740555 -16.12343109 11.70273102 -16.1302948 10.45124817 C-15.73541421 6.92588289 -14.85508796 5.06600795 -12.76953125 2.23046875 C-9.10242778 -0.67317818 -4.45663931 -0.03858974 0 0 Z " fill="#151613" transform="translate(617.76953125,180.76953125)"/>
          <path d="M0 0 C18.71657754 0 18.71657754 0 24 4 C33.01300517 13.15438564 35.12912346 22.81211191 35.23828125 35.28125 C35.246353 36.17179077 35.25442474 37.06233154 35.26274109 37.9798584 C35.27653103 39.86252935 35.28727579 41.74522477 35.29516602 43.62792969 C35.30663602 45.52839635 35.32700799 47.42883208 35.35668945 49.32910156 C35.79699407 77.57747164 35.79699407 77.57747164 26.578125 88.44921875 C18.36682103 96.51824765 11.94180726 95 0 95 C0 63.65 0 32.3 0 0 Z " fill="#E3E0DB" transform="translate(202,653)"/>
          <path d="M0 0 C0.09281853 8.63201819 0.16382466 17.26386369 0.20724869 25.89627266 C0.2280937 29.90498652 0.25635406 33.91335811 0.30175781 37.921875 C0.34532699 41.79279809 0.36916032 45.66339265 0.37950897 49.53454208 C0.3868806 51.00891158 0.40127592 52.48326378 0.42292023 53.95749283 C0.45210357 56.02820459 0.4559501 58.0975716 0.45410156 60.16845703 C0.46298401 61.34538116 0.47186646 62.5223053 0.48101807 63.7348938 C-0.11133104 67.75570481 -1.42997899 69.87885674 -4 73 C-7.15851612 75.27552577 -9.9497702 75.24369665 -13.77832031 75.22705078 C-15.51967255 75.22682419 -15.51967255 75.22682419 -17.29620361 75.22659302 C-18.54423767 75.21627045 -19.79227173 75.20594788 -21.078125 75.1953125 C-23.00069122 75.19106766 -23.00069122 75.19106766 -24.96209717 75.18673706 C-28.36189639 75.17911788 -31.76152346 75.15948434 -35.16125488 75.1373291 C-38.63352081 75.11683358 -42.1058155 75.10761771 -45.578125 75.09765625 C-52.38556847 75.07729906 -59.19253984 75.03814891 -66 75 C-66 66.42 -66 57.84 -66 49 C-53.13 48.67 -40.26 48.34 -27 48 C-25.83574024 45.67148048 -25.84542008 44.23719816 -25.79467773 41.64208984 C-25.77473251 40.74130707 -25.75478729 39.84052429 -25.73423767 38.91244507 C-25.71752518 37.93844757 -25.70081268 36.96445007 -25.68359375 35.9609375 C-25.66281265 34.96494537 -25.64203156 33.96895325 -25.62062073 32.94277954 C-25.55510958 29.75359146 -25.49623296 26.56431942 -25.4375 23.375 C-25.39431627 21.21613707 -25.35070203 19.0572827 -25.30664062 16.8984375 C-25.19942664 11.5990477 -25.09766315 6.29957394 -25 1 C-23.27159593 0.82560247 -21.54219325 0.66110985 -19.8125 0.5 C-18.84957031 0.4071875 -17.88664063 0.314375 -16.89453125 0.21875 C-11.26306672 -0.09756095 -5.63877963 -0.03806057 0 0 Z " fill="#141512" transform="translate(864,364)"/>
          <path d="M0 0 C1.35568336 0.00333092 1.35568336 0.00333092 2.73875427 0.00672913 C3.77407288 0.00684998 4.80939148 0.00697083 5.87608337 0.00709534 C7.52018188 0.01476929 7.52018188 0.01476929 9.19749451 0.02259827 C10.19905579 0.02360535 11.20061707 0.02461243 12.23252869 0.02565002 C15.99039345 0.03090022 19.74824195 0.04486134 23.50608826 0.05775452 C31.90046326 0.07837952 40.29483826 0.09900452 48.94358826 0.12025452 C48.94358826 17.28025452 48.94358826 34.44025452 48.94358826 52.12025452 C31.78358826 52.12025452 14.62358826 52.12025452 -3.05641174 52.12025452 C-3.07703674 43.72587952 -3.09766174 35.33150452 -3.11891174 26.68275452 C-3.12801575 24.02929993 -3.13711975 21.37584534 -3.14649963 18.64198303 C-3.14941861 16.55270946 -3.15196721 14.46343532 -3.15406799 12.37416077 C-3.15918396 11.27809509 -3.16429993 10.18202942 -3.16957092 9.05274963 C-3.16969177 8.01743103 -3.16981262 6.98211243 -3.16993713 5.91542053 C-3.17215775 5.01163162 -3.17437836 4.10784271 -3.17666626 3.17666626 C-3.0137083 0.39000447 -2.78666179 0.16295796 0 0 Z " fill="#E3E1DB" transform="translate(790.0564117431641,205.87974548339844)"/>
          <path d="M0 0 C9.24 0 18.48 0 28 0 C28 9.57 28 19.14 28 29 C-6.98 29 -41.96 29 -78 29 C-78 28.67 -78 28.34 -78 28 C-52.26 28 -26.52 28 0 28 C0 18.76 0 9.52 0 0 Z " fill="#1B1C19" transform="translate(706,261)"/>
          <path d="M0 0 C9.57 0 19.14 0 29 0 C29 9.57 29 19.14 29 29 C19.43 29 9.86 29 0 29 C0 19.43 0 9.86 0 0 Z " fill="#161714" transform="translate(653,234)"/>
          <path d="M0 0 C9.57 0 19.14 0 29 0 C29 8.58 29 17.16 29 26 C19.43 26 9.86 26 0 26 C0 17.42 0 8.84 0 0 Z " fill="#131411" transform="translate(705,208)"/>
          <path d="M0 0 C4.65702344 2.45552145 8.31667974 4.95003921 10 10 C10.50976619 15.3232961 10.67052598 19.65894804 8.25 24.5 C4.2336737 28.96258478 1.33708371 30.80524302 -4.75 31.3125 C-9.3018525 31.22045886 -12.59867438 30.06549854 -16 27 C-19.79284743 21.9428701 -20.78676799 17.19579794 -20 11 C-18.54960661 6.99919575 -16.48444918 4.44984566 -13.375 1.5625 C-8.8052858 -0.55310843 -4.95565365 -0.81385531 0 0 Z " fill="#161613" transform="translate(608,358)"/>
          <path d="M0 0 C3.76849911 3.33030154 6.35940788 5.86822873 7.03515625 11.03125 C7.24689867 17.88065706 6.25601903 21.48541609 1.6875 26.625 C-2.01911499 29.86828811 -6.02631321 29.77675282 -10.73828125 29.71484375 C-14.89719828 29.16579097 -17.51693485 27.45012167 -20.3125 24.375 C-23.16666241 19.49530298 -24.27493369 14.9308672 -23.3125 9.375 C-21.65234512 4.51311784 -18.90873726 1.31742126 -14.3046875 -0.96484375 C-9.14692449 -2.67398483 -4.84663839 -2.37759619 0 0 Z " fill="#131411" transform="translate(608.3125,743.625)"/>
          <path d="M0 0 C0 11.88 0 23.76 0 36 C-14.40737058 28.79631471 -25.88927085 14.32711788 -37 3 C-33.98704757 0.99136504 -33.23188338 0.73199632 -29.82421875 0.5859375 C-28.99470703 0.54726563 -28.16519531 0.50859375 -27.31054688 0.46875 C-26.01213867 0.42234375 -26.01213867 0.42234375 -24.6875 0.375 C-23.86443359 0.33632813 -23.04136719 0.29765625 -22.19335938 0.2578125 C-14.7821068 -0.05924643 -7.43351544 0 0 0 Z " fill="#141512" transform="translate(666,345)"/>
          <path d="M0 0 C4.0018975 2.08573472 6.01965234 4.28378891 7.96875 8.2734375 C8.79760269 13.82152354 8.6928195 18.74484633 6.28125 23.8359375 C2.23283997 28.10318051 -0.52854006 29.47410857 -6.40625 29.8359375 C-11.4844587 29.70572702 -14.08037275 28.47281987 -17.69140625 24.9765625 C-21.03646532 20.72453406 -21.52382439 17.12811169 -21.4140625 11.8125 C-20.63562168 6.64937213 -17.61203598 3.63466987 -13.78125 0.3359375 C-9.19279412 -1.436875 -4.67434792 -1.6719783 0 0 Z " fill="#131411" transform="translate(774.03125,551.7265625)"/>
          <path d="M0 0 C0.66 0.33 1.32 0.66 2 1 C2.715919 3.59800367 3.30783363 6.14027622 3.83984375 8.77734375 C4.00746719 9.57668839 4.17509064 10.37603302 4.34779358 11.19960022 C4.70391078 12.90623784 5.05586657 14.61374813 5.40405273 16.32202148 C5.92366465 18.86966563 6.45565458 21.41444425 6.99023438 23.95898438 C9.27539097 34.93375488 11.21952797 45.93205004 13 57 C5.08 57 -2.84 57 -11 57 C-9.87509113 46.87582017 -9.87509113 46.87582017 -9.07617188 43.21801758 C-8.89928833 42.39719193 -8.72240479 41.57636627 -8.54016113 40.73066711 C-8.35159546 39.87724228 -8.16302979 39.02381744 -7.96875 38.14453125 C-7.77277222 37.23926193 -7.57679443 36.33399261 -7.37487793 35.40129089 C-6.75416584 32.53741761 -6.12739851 29.67491516 -5.5 26.8125 C-4.87369189 23.93914881 -4.24868377 21.06552254 -3.62512207 18.1915741 C-3.23853172 16.41148047 -2.85019436 14.63176505 -2.45983887 12.85249329 C-1.52865929 8.58114967 -0.66934999 4.32230125 0 0 Z " fill="#E0DDD9" transform="translate(214,474)"/>
          <path d="M0 0 C2.31127405 2.31127405 2.48003016 3.36301476 3.12915039 6.50634766 C3.32597916 7.44137115 3.52280792 8.37639465 3.7256012 9.3397522 C3.93087936 10.3542746 4.13615753 11.368797 4.34765625 12.4140625 C4.56441513 13.45766937 4.78117401 14.50127625 5.00450134 15.57650757 C5.46270527 17.79001549 5.91723798 20.00428601 6.3684082 22.21923828 C7.05575786 25.59191774 7.75438735 28.96210106 8.45507812 32.33203125 C8.89910937 34.48423649 9.34248945 36.6365762 9.78515625 38.7890625 C9.99245865 39.79143951 10.19976105 40.79381653 10.41334534 41.8265686 C10.70386024 43.2574733 10.70386024 43.2574733 11.00024414 44.71728516 C11.16964005 45.5462027 11.33903595 46.37512024 11.51356506 47.22915649 C12.14024631 50.79887472 12.55045976 54.4036781 13 58 C5.08 58 -2.84 58 -11 58 C-6.24787725 32.97345189 -6.24787725 32.97345189 -3.8125 21.6875 C-2.26155124 14.48907477 -0.99593852 7.299181 0 0 Z " fill="#E2E0DB" transform="translate(419,280)"/>
          <path d="M0 0 C6.27 0 12.54 0 19 0 C19 0.33 19 0.66 19 1 C10.585 1.495 10.585 1.495 2 2 C2 48.86 2 95.72 2 144 C9.26 144 16.52 144 24 144 C24 123.21 24 102.42 24 81 C24.99 80.505 24.99 80.505 26 80 C26 101.78 26 123.56 26 146 C17.42 146 8.84 146 0 146 C0 97.82 0 49.64 0 0 Z " fill="#060605" transform="translate(482,242)"/>
          <path d="M0 0 C16.17 0 32.34 0 49 0 C49 0.33 49 0.66 49 1 C33.49 1 17.98 1 2 1 C2.08378906 6.40246094 2.16757813 11.80492187 2.25390625 17.37109375 C2.36187167 24.72649525 2.46387473 32.08196759 2.5625 39.4375 C2.5815999 40.86084404 2.5815999 40.86084404 2.60108566 42.3129425 C3.04144278 75.56743313 2.91797681 108.75300308 2 142 C8.34994042 141.90694997 14.6995272 141.79955348 21.04907227 141.68261719 C23.2049421 141.6445544 25.36087055 141.60966384 27.5168457 141.578125 C30.63253601 141.53197731 33.74783059 141.47406953 36.86328125 141.4140625 C38.28741081 141.39673569 38.28741081 141.39673569 39.74031067 141.37905884 C46.32372052 141.23689284 52.55802193 140.35233872 59 139 C57 141 57 141 44 144 C29.48 144 14.96 144 0 144 C0 96.48 0 48.96 0 0 Z " fill="#050504" transform="translate(174,629)"/>
          <path d="M0 0 C0.33 0 0.66 0 1 0 C1 11.55 1 23.1 1 35 C13.87 35 26.74 35 40 35 C40 42.92 40 50.84 40 59 C27.13 59 14.26 59 1 59 C1 70.88 1 82.76 1 95 C15.52 95 30.04 95 45 95 C45 102.92 45 110.84 45 119 C34.77 119 24.54 119 14 119 C14 118.67 14 118.34 14 118 C23.9 118 33.8 118 44 118 C44 110.74 44 103.48 44 96 C29.48 96 14.96 96 0 96 C-0.85173335 92.59306659 -1.12858756 90.16030287 -1.1328125 86.7109375 C-1.13410156 85.68613281 -1.13539063 84.66132812 -1.13671875 83.60546875 C-1.13285156 82.53941406 -1.12898438 81.47335937 -1.125 80.375 C-1.12886719 79.33214844 -1.13273437 78.28929687 -1.13671875 77.21484375 C-1.13542969 76.18230469 -1.13414062 75.14976562 -1.1328125 74.0859375 C-1.13168457 73.1582959 -1.13055664 72.2306543 -1.12939453 71.27490234 C-0.95406503 66.83741181 -0.44189133 62.4189133 0 58 C12.54 58 25.08 58 38 58 C38 51.07 38 44.14 38 37 C19.19 37.495 19.19 37.495 0 38 C0 25.46 0 12.92 0 0 Z " fill="#050605" transform="translate(504,461)"/>
          <path d="M0 0 C23.43 0 46.86 0 71 0 C71 8.25 71 16.5 71 25 C56.48 25 41.96 25 27 25 C27 24.67 27 24.34 27 24 C40.86 24 54.72 24 69 24 C69 16.74 69 9.48 69 2 C46.56 2 24.12 2 1 2 C1 35.33 1 68.66 1 103 C0.67 103 0.34 103 0 103 C0 69.01 0 35.02 0 0 Z " fill="#050504" transform="translate(478,436)"/>
          <path d="M0 0 C12.87 0 25.74 0 39 0 C39 0.33 39 0.66 39 1 C26.79 1 14.58 1 2 1 C2 11.56 2 22.12 2 33 C4.92488281 32.97679687 7.84976563 32.95359375 10.86328125 32.9296875 C13.69294806 32.91409448 16.5226101 32.90194774 19.35229492 32.89013672 C21.32041564 32.88007293 23.28852138 32.86642066 25.2565918 32.84912109 C28.08385918 32.82488941 30.91092905 32.81352077 33.73828125 32.8046875 C34.61962234 32.79436493 35.50096344 32.78404236 36.40901184 32.77340698 C37.22963608 32.77325592 38.05026031 32.77310486 38.89575195 32.77294922 C39.61745071 32.768508 40.33914948 32.76406677 41.0827179 32.75949097 C43 33 43 33 46 35 C46.35644531 37.50610352 46.35644531 37.50610352 46.328125 40.62890625 C46.32296875 41.74587891 46.3178125 42.86285156 46.3125 44.01367188 C46.291875 45.18478516 46.27125 46.35589844 46.25 47.5625 C46.24484375 48.73748047 46.2396875 49.91246094 46.234375 51.12304688 C46.15374453 59.84625547 46.15374453 59.84625547 45 61 C42.73008113 61.09439978 40.45718033 61.11742226 38.18530273 61.11352539 C37.11706772 61.11374443 37.11706772 61.11374443 36.0272522 61.1139679 C33.66266888 61.1132687 31.29816339 61.10547606 28.93359375 61.09765625 C27.29834537 61.09579209 25.66309643 61.09436818 24.02784729 61.09336853 C19.71565215 61.08954318 15.40349048 61.07971275 11.09130859 61.06866455 C6.69434054 61.0584508 2.29736711 61.05387099 -2.09960938 61.04882812 C-10.73308831 61.03809049 -19.36654 61.02101387 -28 61 C-28 60.67 -28 60.34 -28 60 C-4.24 60 19.52 60 44 60 C44 51.75 44 43.5 44 35 C29.48 35 14.96 35 0 35 C0 23.45 0 11.9 0 0 Z " fill="#F6F4F0" transform="translate(505,521)"/>
          <path d="M0 0 C0.33 0 0.66 0 1 0 C1.13281914 12.73867916 1.263323 25.47737996 1.39115143 38.21611023 C1.4506232 44.13610975 1.51078919 50.05610023 1.57275391 55.97607422 C1.8758251 84.98504909 2.08177327 113.98935915 2 143 C3.14371063 142.9955336 4.28742126 142.9910672 5.46578979 142.98646545 C27.66908658 142.90189631 49.81344748 143.08539154 72 144 C72 144.33 72 144.66 72 145 C48.24 145 24.48 145 0 145 C0 97.15 0 49.3 0 0 Z " fill="#2C2C29" transform="translate(477,436)"/>
          <path d="M0 0 C1.35568336 0.00333092 1.35568336 0.00333092 2.73875427 0.00672913 C3.77407288 0.00684998 4.80939148 0.00697083 5.87608337 0.00709534 C7.52018188 0.01476929 7.52018188 0.01476929 9.19749451 0.02259827 C10.19905579 0.02360535 11.20061707 0.02461243 12.23252869 0.02565002 C15.99039345 0.03090022 19.74824195 0.04486134 23.50608826 0.05775452 C31.90046326 0.07837952 40.29483826 0.09900452 48.94358826 0.12025452 C48.94358826 17.28025452 48.94358826 34.44025452 48.94358826 52.12025452 C31.78358826 52.12025452 14.62358826 52.12025452 -3.05641174 52.12025452 C-3.07703674 43.72587952 -3.09766174 35.33150452 -3.11891174 26.68275452 C-3.12801575 24.02929993 -3.13711975 21.37584534 -3.14649963 18.64198303 C-3.14941861 16.55270946 -3.15196721 14.46343532 -3.15406799 12.37416077 C-3.15918396 11.27809509 -3.16429993 10.18202942 -3.16957092 9.05274963 C-3.16969177 8.01743103 -3.16981262 6.98211243 -3.16993713 5.91542053 C-3.17215775 5.01163162 -3.17437836 4.10784271 -3.17666626 3.17666626 C-3.0137083 0.39000447 -2.78666179 0.16295796 0 0 Z M-2.05641174 1.12025452 C-2.05641174 17.62025452 -2.05641174 34.12025452 -2.05641174 51.12025452 C5.84296326 51.14087952 13.74233826 51.16150452 21.88108826 51.18275452 C24.37792175 51.19185852 26.87475525 51.20096252 29.44725037 51.21034241 C31.41347703 51.21326141 33.3797043 51.21581001 35.34593201 51.21791077 C36.37722229 51.22302673 37.40851257 51.2281427 38.47105408 51.2334137 C39.93266968 51.23359497 39.93266968 51.23359497 41.42381287 51.23377991 C42.2743071 51.23600052 43.12480133 51.23822113 44.00106812 51.24050903 C45.94947371 51.33505736 45.94947371 51.33505736 46.94358826 50.12025452 C47.06612376 48.58642773 47.12136763 47.04714933 47.14891052 45.50868225 C47.16909241 44.51396912 47.18927429 43.51925598 47.21006775 42.49440002 C47.22654358 41.44151794 47.24301941 40.38863586 47.25999451 39.30384827 C47.27864563 38.34160339 47.29729675 37.37935852 47.31651306 36.38795471 C47.38504331 32.77798538 47.44504317 29.16785819 47.50608826 25.55775452 C47.65046326 17.49337952 47.79483826 9.42900452 47.94358826 1.12025452 C31.44358826 1.12025452 14.94358826 1.12025452 -2.05641174 1.12025452 Z " fill="#A3A19D" transform="translate(790.0564117431641,205.87974548339844)"/>
          <path d="M0 0 C2.77704031 1.38852015 3.03382737 2.96788482 4.1875 5.8125 C4.55230469 6.68519531 4.91710937 7.55789063 5.29296875 8.45703125 C6.04115271 11.14801336 5.9458895 12.415372 5 15 C4.67 14.34 4.34 13.68 4 13 C3.98969254 13.91010834 3.97938507 14.82021667 3.96876526 15.75790405 C3.87091058 24.32214253 3.76841345 32.88631002 3.66066074 41.45042992 C3.60542489 45.85364629 3.55200383 50.2568693 3.50268555 54.66015625 C3.45505176 58.90715044 3.40270932 63.15406256 3.34705925 67.40095901 C3.32663122 69.02369781 3.30791888 70.64645912 3.29092598 72.26923752 C3.26689184 74.53683381 3.23683607 76.80427443 3.20532227 79.07177734 C3.18977798 80.36417328 3.1742337 81.65656921 3.15821838 82.98812866 C3 86 3 86 2 88 C-6.58 88 -15.16 88 -24 88 C-24 87.67 -24 87.34 -24 87 C-15.75 87 -7.5 87 1 87 C0.67 58.29 0.34 29.58 0 0 Z " fill="#F2F0EC" transform="translate(416,686)"/>
          <path d="M0 0 C14.52 0 29.04 0 44 0 C44 0.33 44 0.66 44 1 C30.14 1 16.28 1 2 1 C2 11.23 2 21.46 2 32 C4.58714844 31.98839844 7.17429687 31.97679687 9.83984375 31.96484375 C12.33520383 31.95705338 14.83056257 31.95097651 17.32592773 31.94506836 C19.06519168 31.94002796 20.80445136 31.9331957 22.54370117 31.92456055 C25.03825937 31.91248208 27.53276173 31.90676892 30.02734375 31.90234375 C30.80963852 31.89718246 31.59193329 31.89202118 32.39793396 31.88670349 C34.26567114 31.88650774 36.13329204 31.93800306 38 32 C39 33 39 33 39.11352539 35.50024414 C39.10828857 36.58426514 39.10305176 37.66828613 39.09765625 38.78515625 C39.09443359 39.95498047 39.09121094 41.12480469 39.08789062 42.33007812 C39.07532227 44.17762695 39.07532227 44.17762695 39.0625 46.0625 C39.05798828 47.29806641 39.05347656 48.53363281 39.04882812 49.80664062 C39.03699608 52.87114117 39.02051173 55.93554721 39 59 C38.67 59 38.34 59 38 59 C38 50.75 38 42.5 38 34 C25.46 34 12.92 34 0 34 C0 22.78 0 11.56 0 0 Z " fill="#F6F5F1" transform="translate(529,654)"/>
          <path d="M0 0 C1.32 0.33 2.64 0.66 4 1 C4 1.99 4 2.98 4 4 C5.65 4 7.3 4 9 4 C8.44894091 7.9492568 7.61064629 11.34920174 6 15 C5.34 15 4.68 15 4 15 C4.66 16.32 5.32 17.64 6 19 C5.01 19 4.02 19 3 19 C2.67 19.66 2.34 20.32 2 21 C4.64 21 7.28 21 10 21 C10 20.34 10 19.68 10 19 C10.99 19.33 11.98 19.66 13 20 C13 20.66 13 21.32 13 22 C9.04 22 5.08 22 1 22 C0.05862745 19.17588235 -0.11725382 17.47081968 -0.09765625 14.55078125 C-0.09443359 13.70322266 -0.09121094 12.85566406 -0.08789062 11.98242188 C-0.07951172 11.10134766 -0.07113281 10.22027344 -0.0625 9.3125 C-0.05798828 8.41982422 -0.05347656 7.52714844 -0.04882812 6.60742188 C-0.03704983 4.40488013 -0.02060164 2.20247401 0 0 Z M-1 19 C-0.67 20.32 -0.34 21.64 0 23 C16.83 23 33.66 23 51 23 C51 23.33 51 23.66 51 24 C33.84 24 16.68 24 -1 24 C-1 22.35 -1 20.7 -1 19 Z " fill="#2C2C28" transform="translate(630,291)"/>
          <path d="M0 0 C14.52 0 29.04 0 44 0 C44 0.33 44 0.66 44 1 C30.14 1 16.28 1 2 1 C2 11.23 2 21.46 2 32 C4.50335938 31.97679687 7.00671875 31.95359375 9.5859375 31.9296875 C12.00520317 31.91409885 14.4244633 31.90194964 16.84375 31.89013672 C18.52769466 31.88006683 20.21162179 31.86641012 21.89550781 31.84912109 C24.31319501 31.82491574 26.73065143 31.81352704 29.1484375 31.8046875 C29.9036972 31.79436493 30.65895691 31.78404236 31.43710327 31.77340698 C33.2929398 31.77300682 35.1481928 31.87777284 37 32 C37.66 32.66 38.32 33.32 39 34 C26.13 34 13.26 34 0 34 C0 22.78 0 11.56 0 0 Z " fill="#F2F0ED" transform="translate(505,462)"/>
          <path d="M0 0 C0.66 0 1.32 0 2 0 C2 8.58 2 17.16 2 26 C-7.57 26 -17.14 26 -27 26 C-27 21.71 -27 17.42 -27 13 C-26.34 12.67 -25.68 12.34 -25 12 C-22.5241453 16.8060709 -23.1360701 17.95249069 -24 24 C-16.41 24 -8.82 24 -1 24 C-1.33 16.74 -1.66 9.48 -2 2 C-1.34 2 -0.68 2 0 2 C0 1.34 0 0.68 0 0 Z " fill="#1A1A18" transform="translate(732,208)"/>
          <path d="M0 0 C8.91 0 17.82 0 27 0 C27 0.33 27 0.66 27 1 C18.42 1 9.84 1 1 1 C1 30.04 1 59.08 1 89 C-1.95183101 86.04816899 -2.08663988 83.04488053 -3 79 C-2.34 79.33 -1.68 79.66 -1 80 C-1.00222061 79.02725128 -1.00444122 78.05450256 -1.00672913 77.05227661 C-1.02697248 67.89945964 -1.04197792 58.74664719 -1.05181217 49.59381294 C-1.05703795 44.88789057 -1.0641301 40.18198622 -1.07543945 35.47607422 C-1.08627912 30.93736468 -1.09227914 26.3986725 -1.09487724 21.85995102 C-1.09672954 20.12554526 -1.10034643 18.39114049 -1.10573006 16.6567421 C-1.11295478 14.23354259 -1.11399033 11.81041552 -1.11352539 9.38720703 C-1.11712067 8.66503998 -1.12071594 7.94287292 -1.12442017 7.19882202 C-1.11405216 2.22810432 -1.11405216 2.22810432 0 0 Z " fill="#F8F8F5" transform="translate(545,241)"/>
          <path d="M0 0 C0 22.11 0 44.22 0 67 C-0.33 67 -0.66 67 -1 67 C-1.0154612 65.88579681 -1.0154612 65.88579681 -1.03123474 64.74908447 C-1.1292541 57.74536904 -1.23177483 50.74173731 -1.33933926 43.73816299 C-1.39447933 40.13764699 -1.44788485 36.53712273 -1.49731445 32.93652344 C-1.54508981 29.46108835 -1.59743696 25.98574933 -1.65294075 22.51042938 C-1.68320827 20.54071081 -1.70875346 18.57092152 -1.73423767 16.60113525 C-1.75418289 15.40019226 -1.77412811 14.19924927 -1.79467773 12.96191406 C-1.81022202 11.90490295 -1.8257663 10.84789185 -1.84178162 9.7588501 C-1.92764181 6.76075559 -1.92764181 6.76075559 -3 3 C-9.6 3 -16.2 3 -23 3 C-22.79375 5.10375 -22.5875 7.2075 -22.375 9.375 C-22.0234375 12.9609375 -22.0234375 12.9609375 -22 16 C-22.66 16.66 -23.32 17.32 -24 18 C-24.33 12.39 -24.66 6.78 -25 1 C-23.288125 0.835 -21.57625 0.67 -19.8125 0.5 C-18.84957031 0.4071875 -17.88664063 0.314375 -16.89453125 0.21875 C-11.271412 -0.0970922 -5.63198246 0 0 0 Z " fill="#4A4A46" transform="translate(864,364)"/>
          <path d="M0 0 C0.33 0 0.66 0 1 0 C2.22899346 6.06815522 3.27560214 11.79895188 3 18 C4.134375 17.814375 5.26875 17.62875 6.4375 17.4375 C8.2009375 17.2209375 8.2009375 17.2209375 10 17 C11 18 11 18 11.0625 20.5625 C11.041875 21.366875 11.02125 22.17125 11 23 C10.01 22.67 9.02 22.34 8 22 C7.67 22.99 7.34 23.98 7 25 C6.34 25 5.68 25 5 25 C5 25.66 5 26.32 5 27 C5.99 27.33 6.98 27.66 8 28 C5.69 28.99 3.38 29.98 1 31 C1 28.36 1 25.72 1 23 C0.34 23 -0.32 23 -1 23 C-1.10920422 15.25863399 -0.97159933 7.68604474 0 0 Z " fill="#161714" transform="translate(272,287)"/>
          <path d="M0 0 C2.50388272 3.80203148 2.27259294 7.66969782 2.23046875 12.0546875 C2.23001053 12.83385529 2.22955231 13.61302307 2.2290802 14.415802 C2.22606426 16.0615593 2.21819764 17.7073139 2.20581055 19.35302734 C2.18761505 21.85915362 2.18530064 24.36490844 2.18554688 26.87109375 C2.18062863 28.4739615 2.17479898 30.07682676 2.16796875 31.6796875 C2.16685593 32.42362762 2.1657431 33.16756775 2.16459656 33.93405151 C2.1274189 38.05622388 1.79838118 41.95513416 1 46 C0.67 46 0.34 46 0 46 C-0.77568176 40.51130054 -1.1484967 35.20702818 -1.1328125 29.66796875 C-1.13376923 28.90954178 -1.13472595 28.15111481 -1.13571167 27.3697052 C-1.13638682 25.78235795 -1.1345794 24.19500783 -1.13037109 22.60766602 C-1.12497566 20.17653273 -1.13035774 17.74558104 -1.13671875 15.31445312 C-1.13605858 13.76562459 -1.13477869 12.21679617 -1.1328125 10.66796875 C-1.13483673 9.94296677 -1.13686096 9.21796478 -1.13894653 8.47099304 C-1.12447164 5.37283305 -0.98758733 2.96276199 0 0 Z " fill="#D8D6D2" transform="translate(298,485)"/>
          <path d="M0 0 C2.99324263 1.0975223 3.84610901 1.67682892 5.25 4.625 C5.4975 5.40875 5.745 6.1925 6 7 C5.34 7.66 4.68 8.32 4 9 C5.96822886 10.96822886 9.34808709 10.66248381 12 11 C12 11.33 12 11.66 12 12 C16.29 12.33 20.58 12.66 25 13 C25 13.33 25 13.66 25 14 C16.75 14 8.5 14 0 14 C-2.76742952 8.46514095 -3.34657691 6.7762818 -3 1 C-2.01 1.495 -2.01 1.495 -1 2 C-0.67 1.34 -0.34 0.68 0 0 Z " fill="#272724" transform="translate(455,759)"/>
          <path d="M0 0 C0 11.88 0 23.76 0 36 C-0.33 36 -0.66 36 -1 36 C-1.33 24.78 -1.66 13.56 -2 2 C-5.3 2.66 -8.6 3.32 -12 4 C-15.1015625 3.66015625 -15.1015625 3.66015625 -18 3 C-20.78711158 2.73770817 -23.58003686 2.59165258 -26.375 2.4375 C-27.11105469 2.39431641 -27.84710937 2.35113281 -28.60546875 2.30664062 C-30.40348068 2.20156201 -32.20171958 2.10037907 -34 2 C-34 1.67 -34 1.34 -34 1 C-30.95853608 0.82864992 -27.91692051 0.66288142 -24.875 0.5 C-24.03839844 0.45230469 -23.20179688 0.40460938 -22.33984375 0.35546875 C-14.86065498 -0.03817276 -7.52437155 0 0 0 Z " fill="#2B2A27" transform="translate(666,345)"/>
          <path d="M0 0 C0.33 0 0.66 0 1 0 C1.66 2.64 2.32 5.28 3 8 C3.33 8 3.66 8 4 8 C4 11.3 4 14.6 4 18 C-4.58 18 -13.16 18 -22 18 C-22 14.04 -22 10.08 -22 6 C-21.67 6 -21.34 6 -21 6 C-21 9.3 -21 12.6 -21 16 C-10.11 15.505 -10.11 15.505 1 15 C0.5547002 7.83205029 0.5547002 7.83205029 -1 5 C-0.72057545 3.32345271 -0.39171753 1.65391846 0 0 Z " fill="#21201E" transform="translate(355,467)"/>
          <path d="M0 0 C2.64 0 5.28 0 8 0 C8.33 0.66 8.66 1.32 9 2 C9.99 2.33 10.98 2.66 12 3 C11.67 4.32 11.34 5.64 11 7 C13.97 7.495 13.97 7.495 17 8 C17 8.33 17 8.66 17 9 C11.72 9.66 6.44 10.32 1 11 C0.67 7.37 0.34 3.74 0 0 Z " fill="#0F0F0D" transform="translate(619,467)"/>
          <path d="M0 0 C1.88414642 3.19457351 2.23819737 5.51502629 2.1953125 9.203125 C2.18886719 10.1828125 2.18242188 11.1625 2.17578125 12.171875 C2.15902344 13.18765625 2.14226563 14.2034375 2.125 15.25 C2.11597656 16.28125 2.10695313 17.3125 2.09765625 18.375 C2.07412138 20.91676616 2.03825131 23.45841272 2 26 C8.93 26 15.86 26 23 26 C23 26.33 23 26.66 23 27 C15.08 27.33 7.16 27.66 -1 28 C-1.020625 25.050625 -1.04125 22.10125 -1.0625 19.0625 C-1.071604 18.15250244 -1.08070801 17.24250488 -1.09008789 16.30493164 C-1.10847587 10.79031745 -0.70105947 5.47047191 0 0 Z " fill="#D5D3CF" transform="translate(762,311)"/>
          <path d="M0 0 C4.68139254 -0.02465288 9.36274759 -0.04283739 14.04418945 -0.05493164 C15.63794614 -0.05997157 17.23169819 -0.0668035 18.82543945 -0.07543945 C21.11150253 -0.08751999 23.39750467 -0.09323155 25.68359375 -0.09765625 C26.40026718 -0.10281754 27.11694061 -0.10797882 27.85533142 -0.11329651 C29.57063672 -0.11349263 31.28581266 -0.06192007 33 0 C34 1 34 1 34.0625 4.0625 C34.041875 5.031875 34.02125 6.00125 34 7 C32 4 32 4 32 2 C21.77 2 11.54 2 1 2 C0.67 3.98 0.34 5.96 0 8 C-0.33 8 -0.66 8 -1 8 C-1.125 2.25 -1.125 2.25 0 0 Z " fill="#DAD9D5" transform="translate(198,553)"/>
          <path d="M0 0 C2.64 0 5.28 0 8 0 C7.67 0.66 7.34 1.32 7 2 C5.02 2 3.04 2 1 2 C1 9.26 1 16.52 1 24 C0.01 24.33 -0.98 24.66 -2 25 C-2.05816623 21.58340509 -2.09365195 18.16693795 -2.125 14.75 C-2.14175781 13.78191406 -2.15851562 12.81382812 -2.17578125 11.81640625 C-2.18222656 10.88183594 -2.18867187 9.94726562 -2.1953125 8.984375 C-2.20578613 8.12553711 -2.21625977 7.26669922 -2.22705078 6.38183594 C-1.98293323 3.82096404 -1.28990512 2.20488971 0 0 Z " fill="#1D1D1A" transform="translate(785,363)"/>
          <path d="M0 0 C11.55 0 23.1 0 35 0 C35 0.33 35 0.66 35 1 C18.665 1.495 18.665 1.495 2 2 C1.67 9.92 1.34 17.84 1 26 C0.67 26 0.34 26 0 26 C0 17.42 0 8.84 0 0 Z " fill="#5E5D59" transform="translate(798,413)"/>
          <path d="M0 0 C0.33 0 0.66 0 1 0 C1 1.98 1 3.96 1 6 C-6.92 6 -14.84 6 -23 6 C-23.33 8.97 -23.66 11.94 -24 15 C-24.33 15 -24.66 15 -25 15 C-25.02688151 13.35425434 -25.04634123 11.70838587 -25.0625 10.0625 C-25.07410156 9.14597656 -25.08570313 8.22945313 -25.09765625 7.28515625 C-25 5 -25 5 -24 4 C-22.21928754 3.91273777 -20.4351686 3.89300959 -18.65234375 3.90234375 C-17.57275391 3.90556641 -16.49316406 3.90878906 -15.38085938 3.91210938 C-13.67639648 3.92467773 -13.67639648 3.92467773 -11.9375 3.9375 C-10.22723633 3.94426758 -10.22723633 3.94426758 -8.48242188 3.95117188 C-5.65489649 3.96300253 -2.8274736 3.9794859 0 4 C0 2.68 0 1.36 0 0 Z " fill="#1F1F1D" transform="translate(837,333)"/>
          <path d="M0 0 C0.33 0 0.66 0 1 0 C0.8831456 1.50065654 0.75597952 3.0005103 0.625 4.5 C0.55539063 5.3353125 0.48578125 6.170625 0.4140625 7.03125 C-0.10308671 10.73911229 -1.09200654 14.36802617 -2 18 C-10.58 18 -19.16 18 -28 18 C-27.505 16.515 -27.505 16.515 -27 15 C-26.20335937 15.16371094 -25.40671875 15.32742188 -24.5859375 15.49609375 C-20.23204401 16.10791538 -16.0136058 16.10799591 -11.625 16.0625 C-10.79355469 16.05798828 -9.96210938 16.05347656 -9.10546875 16.04882812 C-7.07028103 16.03713164 -5.03513077 16.01919935 -3 16 C-2.86722656 15.09636719 -2.73445313 14.19273437 -2.59765625 13.26171875 C-2.33275391 11.49248047 -2.33275391 11.49248047 -2.0625 9.6875 C-1.88847656 8.51574219 -1.71445313 7.34398437 -1.53515625 6.13671875 C-1 3 -1 3 0 0 Z " fill="#040403" transform="translate(194,563)"/>
          <path d="M0 0 C2 2 2 2 2.22705078 4.43017578 C2.21657715 5.4251709 2.20610352 6.42016602 2.1953125 7.4453125 C2.18886719 8.52167969 2.18242188 9.59804688 2.17578125 10.70703125 C2.15902344 11.83496094 2.14226563 12.96289062 2.125 14.125 C2.11597656 15.26066406 2.10695313 16.39632813 2.09765625 17.56640625 C2.07403098 20.37781299 2.04109013 23.18880298 2 26 C0.03756066 22.2059506 -1.12619713 19.09806468 -1.1328125 14.8046875 C-1.13410156 14.00675781 -1.13539063 13.20882813 -1.13671875 12.38671875 C-1.13285156 11.55785156 -1.12898437 10.72898437 -1.125 9.875 C-1.12886719 9.03839844 -1.13273438 8.20179688 -1.13671875 7.33984375 C-1.12664874 1.12664874 -1.12664874 1.12664874 0 0 Z " fill="#D9D8D4" transform="translate(627,289)"/>
          <path d="M0 0 C0.33 2.31 0.66 4.62 1 7 C1.99 7.33 2.98 7.66 4 8 C3.01 8.66 2.02 9.32 1 10 C2.98 13.3 4.96 16.6 7 20 C6.34 20.33 5.68 20.66 5 21 C4.60167969 20.31292969 4.20335937 19.62585938 3.79296875 18.91796875 C3.26316406 18.01691406 2.73335937 17.11585938 2.1875 16.1875 C1.66542969 15.29417969 1.14335937 14.40085937 0.60546875 13.48046875 C-0.85218519 11.01336182 -0.85218519 11.01336182 -2.6875 9.40625 C-4 8 -4 8 -4.1875 4.3125 C-4.125625 3.219375 -4.06375 2.12625 -4 1 C-1 0 -1 0 0 0 Z " fill="#10100D" transform="translate(229,649)"/>
          <path d="M0 0 C0.33 0 0.66 0 1 0 C1.07476562 0.62648438 1.14953125 1.25296875 1.2265625 1.8984375 C1.62998447 4.40598191 2.06609491 6.63497183 3 9 C5.98283157 10.69165301 5.98283157 10.69165301 9 11 C9 12.98 9 14.96 9 17 C8.38125 17.12375 7.7625 17.2475 7.125 17.375 C4.80879168 17.87197356 4.80879168 17.87197356 3 20 C2.49219106 17.79344925 1.99408635 15.58466395 1.5 13.375 C1.08234375 11.53035156 1.08234375 11.53035156 0.65625 9.6484375 C0.05908379 6.32847772 -0.12409534 3.36091549 0 0 Z " fill="#0D0D0B" transform="translate(221,497)"/>
          <path d="M0 0 C0.33 0 0.66 0 1 0 C2.78540355 7.62854246 3.11032496 14.24272966 2 22 C1.01 22.33 0.02 22.66 -1 23 C-1.10920422 15.25863399 -0.97159933 7.68604474 0 0 Z " fill="#23221F" transform="translate(272,287)"/>
          <path d="M0 0 C0.33 0 0.66 0 1 0 C1 10.56 1 21.12 1 32 C0.67 32 0.34 32 0 32 C-0.06058594 31.00097656 -0.12117188 30.00195312 -0.18359375 28.97265625 C-0.26738281 27.68230469 -0.35117187 26.39195312 -0.4375 25.0625 C-0.51871094 23.77472656 -0.59992188 22.48695313 -0.68359375 21.16015625 C-0.64919188 18.13976043 -0.64919188 18.13976043 -2 17 C-2.23192865 15.48530552 -2.41215238 13.96245438 -2.5625 12.4375 C-2.64628906 11.61121094 -2.73007812 10.78492188 -2.81640625 9.93359375 C-2.87699219 9.29550781 -2.93757813 8.65742187 -3 8 C-2.34 7.67 -1.68 7.34 -1 7 C-0.59270772 4.67843403 -0.25561323 2.3431213 0 0 Z " fill="#20211E" transform="translate(375,685)"/>
          <path d="M0 0 C0.33 0 0.66 0 1 0 C2.485 8.91 2.485 8.91 4 18 C-3.92 18 -11.84 18 -20 18 C-20 17.67 -20 17.34 -20 17 C-9.605 16.505 -9.605 16.505 1 16 C1.33 15.01 1.66 14.02 2 13 C1.34 13 0.68 13 0 13 C-0.19551338 11.39679026 -0.38111983 9.79237014 -0.5625 8.1875 C-0.66691406 7.29417969 -0.77132813 6.40085937 -0.87890625 5.48046875 C-1 3 -1 3 0 0 Z " fill="#C8C7C3" transform="translate(428,320)"/>
          <path d="M0 0 C1.32 1.65 2.64 3.3 4 5 C3.01 6.485 3.01 6.485 2 8 C8.93 8.495 8.93 8.495 16 9 C16 9.33 16 9.66 16 10 C10.03325384 11.32594359 4.07416385 11.0884587 -2 11 C-2 10.34 -2 9.68 -2 9 C-1.34 9 -0.68 9 0 9 C0 6.03 0 3.06 0 0 Z " fill="#222220" transform="translate(604,246)"/>
          <path d="M0 0 C0.33 0 0.66 0 1 0 C1.66 5.61 2.32 11.22 3 17 C3.99 17.33 4.98 17.66 6 18 C5.67 18.99 5.34 19.98 5 21 C4.34 21 3.68 21 3 21 C3.33 24.3 3.66 27.6 4 31 C-1.70577424 22.44133864 -0.22682937 9.93008589 0 0 Z " fill="#080807" transform="translate(372,517)"/>
          <path d="M0 0 C0.99 1.32 1.98 2.64 3 4 C3.66 4 4.32 4 5 4 C5 4.99 5 5.98 5 7 C6.32 6.67 7.64 6.34 9 6 C9 7.65 9 9.3 9 11 C6.36 11.66 3.72 12.32 1 13 C0.67 8.71 0.34 4.42 0 0 Z " fill="#0E0E0C" transform="translate(228,272)"/>
          <path d="M0 0 C1.34679585 2.57425536 2.28663927 4.89009035 3.1875 7.6875 C5.06291812 12.80402532 8.23401342 17.0885094 12 21 C12.99 21.33 13.98 21.66 15 22 C16.38576923 23.62332967 17.72641268 25.28724465 19 27 C14.73542014 27 13.20062501 25.05729553 10.13671875 22.25390625 C3.84026316 15.61212402 0.15084514 9.20155327 0 0 Z " fill="#0D0D0C" transform="translate(565,482)"/>
          <path d="M0 0 C1.39412109 -0.02126953 1.39412109 -0.02126953 2.81640625 -0.04296875 C5.51238389 0.19408443 7.13157875 0.81479864 9.4375 2.1875 C6.73033758 3.08988747 5.19973232 3.30601302 2.42578125 3.28515625 C1.28979492 3.28032227 1.28979492 3.28032227 0.13085938 3.27539062 C-0.65482422 3.26701172 -1.44050781 3.25863281 -2.25 3.25 C-3.04728516 3.24548828 -3.84457031 3.24097656 -4.66601562 3.23632812 C-6.63154257 3.2245585 -8.59703085 3.20662348 -10.5625 3.1875 C-10.5625 2.5275 -10.5625 1.8675 -10.5625 1.1875 C-6.99432513 0.37802294 -3.65768144 0.02543589 0 0 Z " fill="#232220" transform="translate(327.5625,625.8125)"/>
          <path d="M0 0 C1.80714406 3.30508096 1.98244126 4.39771538 1 8 C1.20625 8.721875 1.4125 9.44375 1.625 10.1875 C2.19843252 14.48824391 0.53644576 18.0156576 -1 22 C-1.33 22 -1.66 22 -2 22 C-3.47957572 14.06409385 -2.11536025 7.73241853 0 0 Z " fill="#1A1A18" transform="translate(172,550)"/>
          <path d="M0 0 C3.96 0 7.92 0 12 0 C12 0.33 12 0.66 12 1 C8.7 1.33 5.4 1.66 2 2 C2 6.62 2 11.24 2 16 C0 14 0 14 -0.1953125 10.7421875 C-0.17210937 9.46601563 -0.14890625 8.18984375 -0.125 6.875 C-0.10695313 5.59367188 -0.08890625 4.31234375 -0.0703125 2.9921875 C-0.04710937 2.00476563 -0.02390625 1.01734375 0 0 Z " fill="#040403" transform="translate(546,242)"/>
          <path d="M0 0 C5.61 0 11.22 0 17 0 C16.67 0.66 16.34 1.32 16 2 C11.38 2 6.76 2 2 2 C1.67 4.31 1.34 6.62 1 9 C0.67 9 0.34 9 0 9 C0 6.03 0 3.06 0 0 Z " fill="#060604" transform="translate(336,340)"/>
          <path d="M0 0 C0.99 0.66 1.98 1.32 3 2 C2.67 2.99 2.34 3.98 2 5 C-0.72633694 6.10213621 -3.04144033 7 -6 7 C-7.36161311 7.96113866 -8.69855198 8.95884159 -10 10 C-8.4411666 6.17377257 -6.04566418 3.74852621 -3 1 C-2.01 0.67 -1.02 0.34 0 0 Z " fill="#0C0C0A" transform="translate(302,634)"/>
          <path d="M0 0 C2.1827846 3.68226271 2.8558404 7.59810785 3.625 11.75 C3.7590625 12.44738281 3.893125 13.14476562 4.03125 13.86328125 C4.35943264 15.57451932 4.68043502 17.28713171 5 19 C4.01 18.67 3.02 18.34 2 18 C1.33333333 14.66666667 0.66666667 11.33333333 0 8 C-0.20753906 7.12730469 -0.41507812 6.25460937 -0.62890625 5.35546875 C-1 3 -1 3 0 0 Z " fill="#1C1C1A" transform="translate(440,261)"/>
          <path d="M0 0 C-0.33 5.94 -0.66 11.88 -1 18 C-1.33 18 -1.66 18 -2 18 C-2 16.02 -2 14.04 -2 12 C-2.99 12 -3.98 12 -5 12 C-4.71905418 10.1858073 -4.42493567 8.37364999 -4.125 6.5625 C-3.96257812 5.55316406 -3.80015625 4.54382813 -3.6328125 3.50390625 C-3.42398437 2.67761719 -3.21515625 1.85132813 -3 1 C-1 0 -1 0 0 0 Z " fill="#20211D" transform="translate(265,674)"/>
          <path d="M0 0 C0.99 0 1.98 0 3 0 C2.938125 0.94875 2.87625 1.8975 2.8125 2.875 C2.874375 3.90625 2.93625 4.9375 3 6 C3.99 6.66 4.98 7.32 6 8 C5.360625 8.103125 4.72125 8.20625 4.0625 8.3125 C3.0415625 8.6528125 3.0415625 8.6528125 2 9 C1.67 9.99 1.34 10.98 1 12 C0.01 12 -0.98 12 -2 12 C-1.34 8.04 -0.68 4.08 0 0 Z " fill="#1C1D1A" transform="translate(378,350)"/>
          <path d="M0 0 C0.33 0 0.66 0 1 0 C1 6.93 1 13.86 1 21 C1.66 21 2.32 21 3 21 C2.01 23.475 2.01 23.475 1 26 C0.67 26 0.34 26 0 26 C0 17.42 0 8.84 0 0 Z " fill="#1C1D19" transform="translate(281,688)"/>
          <path d="M0 0 C2 3 2 3 2 7 C2.66 7 3.32 7 4 7 C4 7.66 4 8.32 4 9 C3.01 9 2.02 9 1 9 C1 9.99 1 10.98 1 12 C0.01 12 -0.98 12 -2 12 C-1.34 8.04 -0.68 4.08 0 0 Z " fill="#1C1C1A" transform="translate(187,482)"/>
          <path d="M0 0 C0 0.66 0 1.32 0 2 C-2.75078884 2.91692961 -4.35948913 3.10886083 -7.1875 3.0625 C-9.0746875 3.0315625 -9.0746875 3.0315625 -11 3 C-11 2.01 -11 1.02 -11 0 C-9.54263913 -0.19491452 -8.08405407 -0.38069358 -6.625 -0.5625 C-5.81289062 -0.66691406 -5.00078125 -0.77132813 -4.1640625 -0.87890625 C-2 -1 -2 -1 0 0 Z " fill="#DAD8D3" transform="translate(221,364)"/>
          <path d="M0 0 C0.33 0 0.66 0 1 0 C1.19600577 2.22843488 1.38146569 4.45779893 1.5625 6.6875 C1.66691406 7.92886719 1.77132813 9.17023438 1.87890625 10.44921875 C1.98493841 13.55835533 1.77228525 16.00810972 1 19 C0.34 18.67 -0.32 18.34 -1 18 C-0.505 9.09 -0.505 9.09 0 0 Z " fill="#F0EFEC" transform="translate(363,340)"/>
          <path d="M0 0 C0.33 0 0.66 0 1 0 C1 2.97 1 5.94 1 9 C0.01 9 -0.98 9 -2 9 C-2.33 9.99 -2.66 10.98 -3 12 C-3.99 11.01 -4.98 10.02 -6 9 C-5.34 9 -4.68 9 -4 9 C-3.67 8.01 -3.34 7.02 -3 6 C-2.01 6 -1.02 6 0 6 C0 4.02 0 2.04 0 0 Z " fill="#0C0C0A" transform="translate(460,540)"/>
          <path d="M0 0 C0.33 0 0.66 0 1 0 C1.19627391 1.58226965 1.38165538 3.16589271 1.5625 4.75 C1.66691406 5.63171875 1.77132813 6.5134375 1.87890625 7.421875 C1.99456676 9.88432451 1.73638695 11.66538064 1 14 C1.99 13.67 2.98 13.34 4 13 C2.25 16.875 2.25 16.875 0 18 C0 12.06 0 6.12 0 0 Z " fill="#1A1A17" transform="translate(479,500)"/>
          <path d="M0 0 C0.33 0 0.66 0 1 0 C1.66 3.96 2.32 7.92 3 12 C1 12 1 12 -0.75 10.5 C-2.69536327 6.60927346 -1.28761284 4.06614582 0 0 Z " fill="#1F1F1D" transform="translate(244,493)"/>
          <path d="M0 0 C0.99 0.99 1.98 1.98 3 3 C2.85546875 5.26171875 2.85546875 5.26171875 2.1875 7.6875 C1.97480469 8.49574219 1.76210938 9.30398438 1.54296875 10.13671875 C1.27419922 11.05904297 1.27419922 11.05904297 1 12 C0.34 11.67 -0.32 11.34 -1 11 C-0.67 7.37 -0.34 3.74 0 0 Z " fill="#1F1F1C" transform="translate(271,474)"/>
          <path d="M0 0 C-1.32 0.33 -2.64 0.66 -4 1 C-4 1.66 -4 2.32 -4 3 C-6.31 3 -8.62 3 -11 3 C-11.33 2.01 -11.66 1.02 -12 0 C-10.37585622 -0.19477739 -8.75063577 -0.38059458 -7.125 -0.5625 C-6.22007812 -0.66691406 -5.31515625 -0.77132812 -4.3828125 -0.87890625 C-2 -1 -2 -1 0 0 Z " fill="#1D1C19" transform="translate(428,557)"/>
          <path d="M0 0 C-0.33 0.99 -0.66 1.98 -1 3 C-5.8333472 3.08333357 -10.23692563 2.95261487 -15 2 C-15 1.67 -15 1.34 -15 1 C-9.9752761 0.37470103 -5.07471573 -0.13012092 0 0 Z " fill="#CCCAC6" transform="translate(636,476)"/>
          <path d="M0 0 C4.87685861 1.35468295 6.48592381 3.71675909 9 8 C8.46375 7.71125 7.9275 7.4225 7.375 7.125 C4.64719516 5.83288192 1.87387282 4.91441408 -1 4 C-0.67 2.68 -0.34 1.36 0 0 Z " fill="#0D0D0B" transform="translate(682,549)"/>
          <path d="M0 0 C0.66 0.33 1.32 0.66 2 1 C2.4140625 3.06640625 2.4140625 3.06640625 2.625 5.5625 C2.69976562 6.38878906 2.77453125 7.21507812 2.8515625 8.06640625 C2.92503906 9.02353516 2.92503906 9.02353516 3 10 C1.68 9.67 0.36 9.34 -1 9 C-0.67 6.03 -0.34 3.06 0 0 Z " fill="#D4D4D0" transform="translate(214,474)"/>
          <path d="M0 0 C2 2 2 2 2.1953125 4.6015625 C2.17210937 5.59929687 2.14890625 6.59703125 2.125 7.625 C2.10695313 8.62789063 2.08890625 9.63078125 2.0703125 10.6640625 C2.03550781 11.82035156 2.03550781 11.82035156 2 13 C-0.07493465 11.30729015 -0.93070018 10.47024878 -1.328125 7.7734375 C-1.30234375 6.98195313 -1.2765625 6.19046875 -1.25 5.375 C-1.23453125 4.57835937 -1.2190625 3.78171875 -1.203125 2.9609375 C-1 1 -1 1 0 0 Z " fill="#DBD9D4" transform="translate(301,327)"/>
          <path d="M0 0 C2.12046792 3.53411321 2.53199289 6.94393835 3 11 C2.01 11 1.02 11 0 11 C-0.84098656 6.98195309 -1.05404945 3.98196457 0 0 Z " fill="#1C1C19" transform="translate(254,536)"/>
          <path d="M0 0 C0.33 0.66 0.66 1.32 1 2 C-0.60049704 2.39036513 -2.20562371 2.76178619 -3.8125 3.125 C-4.70582031 3.33382812 -5.59914063 3.54265625 -6.51953125 3.7578125 C-9 4 -9 4 -12 2 C-7.8803623 0.70756464 -4.33168317 -0.26252625 0 0 Z " fill="#201F1E" transform="translate(314,240)"/>
          <path d="M0 0 C0.99 1.485 0.99 1.485 2 3 C5.56769552 3.73606499 5.56769552 3.73606499 9 4 C4.25 8 4.25 8 2 8 C2 7.01 2 6.02 2 5 C1.34 5 0.68 5 0 5 C0 3.35 0 1.7 0 0 Z " fill="#1B1C18" transform="translate(282,677)"/>
          <path d="M0 0 C0.66 0.66 1.32 1.32 2 2 C1.625 5.125 1.625 5.125 1 8 C0.34 8 -0.32 8 -1 8 C-1.66 6.35 -2.32 4.7 -3 3 C-2.01 2.01 -1.02 1.02 0 0 Z " fill="#0E0E0C" transform="translate(418,632)"/>
          <path d="M0 0 C1.32 0 2.64 0 4 0 C4.1875 2.375 4.1875 2.375 4 5 C3.01 5.66 2.02 6.32 1 7 C1 6.34 1 5.68 1 5 C0.34 5 -0.32 5 -1 5 C-0.67 3.35 -0.34 1.7 0 0 Z " fill="#10100D" transform="translate(388,308)"/>
          <path d="M0 0 C1.5 1.1875 1.5 1.1875 3 3 C3.1875 5.6875 3.1875 5.6875 3 8 C0.36 7.67 -2.28 7.34 -5 7 C-4.01 6.34 -3.02 5.68 -2 5 C-1.34 5.33 -0.68 5.66 0 6 C-0.185625 5.38125 -0.37125 4.7625 -0.5625 4.125 C-1 2 -1 2 0 0 Z " fill="#201F1C" transform="translate(360,283)"/>
          <path d="M0 0 C1.32 1.65 2.64 3.3 4 5 C3.01 6.485 3.01 6.485 2 8 C3.65 8 5.3 8 7 8 C7 8.33 7 8.66 7 9 C4.69 9 2.38 9 0 9 C0 6.03 0 3.06 0 0 Z " fill="#1C1D1A" transform="translate(604,246)"/>
          <path d="M0 0 C0.66 0 1.32 0 2 0 C1.88557539 1.60495567 1.75805306 3.20898119 1.625 4.8125 C1.55539063 5.70582031 1.48578125 6.59914063 1.4140625 7.51953125 C1 10 1 10 -1 13 C-1.02696365 11.20841511 -1.04637917 9.41671527 -1.0625 7.625 C-1.07410156 6.62726562 -1.08570313 5.62953125 -1.09765625 4.6015625 C-1 2 -1 2 0 0 Z " fill="#F0EEEC" transform="translate(168,558)"/>
          <path d="M0 0 C0.66 1.32 1.32 2.64 2 4 C1.01 4.66 0.02 5.32 -1 6 C-1 6.99 -1 7.98 -1 9 C-1.99 9 -2.98 9 -4 9 C-3.34 6.69 -2.68 4.38 -2 2 C-1.34 2 -0.68 2 0 2 C0 1.34 0 0.68 0 0 Z " fill="#1D1D1B" transform="translate(378,463)"/>
          <path d="M0 0 C0.33 0.99 0.66 1.98 1 3 C1.66 3.33 2.32 3.66 3 4 C1.4198632 6.15473199 -0.10646634 8.10646634 -2 10 C-2.6875 8.375 -2.6875 8.375 -3 6 C-1.5625 2.75 -1.5625 2.75 0 0 Z " fill="#1B1B18" transform="translate(347,373)"/>
          <path d="M0 0 C1.65 0 3.3 0 5 0 C4.1875 2.9375 4.1875 2.9375 3 6 C2.01 6.33 1.02 6.66 0 7 C0 4.69 0 2.38 0 0 Z " fill="#1B1C19" transform="translate(336,284)"/>
          <path d="M0 0 C0.33 0.66 0.66 1.32 1 2 C-3.1205746 3.99785435 -6.45194365 4.17835515 -11 4 C-7.57653445 0.85041169 -4.55737263 0.43820891 0 0 Z " fill="#0C0C0A" transform="translate(436,578)"/>
          <path d="M0 0 C0.66 0.66 1.32 1.32 2 2 C1.625 4.125 1.625 4.125 1 6 C-1.31 5.34 -3.62 4.68 -6 4 C-5.67 3.34 -5.34 2.68 -5 2 C-3.35 2 -1.7 2 0 2 C0 1.34 0 0.68 0 0 Z " fill="#1A1B18" transform="translate(218,366)"/>
          <path d="M0 0 C3.93673644 1.31224548 6.22719294 2.91910327 9 6 C7.02 6.33 5.04 6.66 3 7 C3 5.68 3 4.36 3 3 C1.5833253 1.2488427 1.5833253 1.2488427 0 0 Z " fill="#0C0B0A" transform="translate(227,306)"/>
          <path d="M0 0 C6.75 -0.125 6.75 -0.125 9 1 C8.67 2.32 8.34 3.64 8 5 C7.67 4.34 7.34 3.68 7 3 C5.824375 3.0928125 5.824375 3.0928125 4.625 3.1875 C3.75875 3.125625 2.8925 3.06375 2 3 C1.34 2.01 0.68 1.02 0 0 Z " fill="#343330" transform="translate(313,558)"/>
          <path d="M0 0 C0.99 0 1.98 0 3 0 C3 0.99 3 1.98 3 3 C3.99 3.33 4.98 3.66 6 4 C4.35 5.32 2.7 6.64 1 8 C0.67 5.36 0.34 2.72 0 0 Z " fill="#1E1E1A" transform="translate(190,469)"/>
          <path d="M0 0 C0.66 0 1.32 0 2 0 C2.96398647 2.8919594 3 4.9994375 3 8 C2.34 8 1.68 8 1 8 C0.67 7.34 0.34 6.68 0 6 C-0.66 5.67 -1.32 5.34 -2 5 C-1.34 3.35 -0.68 1.7 0 0 Z " fill="#1D1E1B" transform="translate(527,291)"/>
          <path d="M0 0 C0.66 0.33 1.32 0.66 2 1 C1.67 2.98 1.34 4.96 1 7 C0.01 7.33 -0.98 7.66 -2 8 C-1.125 1.125 -1.125 1.125 0 0 Z " fill="#1D1D1B" transform="translate(392,291)"/>
          <path d="M0 0 C2.97 0.495 2.97 0.495 6 1 C6.33 1.99 6.66 2.98 7 4 C0.9453125 4.1953125 0.9453125 4.1953125 -1 4 C-1.66 3.34 -2.32 2.68 -3 2 C-2.01 2 -1.02 2 0 2 C0 1.34 0 0.68 0 0 Z " fill="#1C1B18" transform="translate(621,252)"/>
          <path d="M0 0 C0.33 0 0.66 0 1 0 C1 2.31 1 4.62 1 7 C-0.32 7.33 -1.64 7.66 -3 8 C-2.25 2.25 -2.25 2.25 0 0 Z " fill="#1B1A18" transform="translate(347,728)"/>
          <path d="M0 0 C0.99 0.33 1.98 0.66 3 1 C3.33 2.65 3.66 4.3 4 6 C3.01 6.33 2.02 6.66 1 7 C0.34 6.34 -0.32 5.68 -1 5 C-1 2 -1 2 0 0 Z " fill="#1A1B18" transform="translate(330,645)"/>
          <path d="M0 0 C0.99 0 1.98 0 3 0 C2.67 2.31 2.34 4.62 2 7 C1.01 7 0.02 7 -1 7 C-0.67 4.69 -0.34 2.38 0 0 Z " fill="#22211E" transform="translate(183,500)"/>
          <path d="M0 0 C2.1385485 2.1385485 2.42655063 3.13275314 3 6 C2.01 6.66 1.02 7.32 0 8 C-0.33 7.67 -0.66 7.34 -1 7 C-0.71269945 4.66055264 -0.38063221 2.3260857 0 0 Z " fill="#1C1C19" transform="translate(373,477)"/>
          <path d="M0 0 C0.99 0 1.98 0 3 0 C2.75 3.375 2.75 3.375 2 7 C-0.0625 8.4375 -0.0625 8.4375 -2 9 C-1.505 7.6078125 -1.505 7.6078125 -1 6.1875 C0.14967004 3.07970709 0.14967004 3.07970709 0 0 Z " fill="#191A17" transform="translate(400,472)"/>
          <path d="M0 0 C2.475 0.99 2.475 0.99 5 2 C4.01 2.33 3.02 2.66 2 3 C2 4.98 2 6.96 2 9 C-0.29013653 5.5647952 -0.17842973 4.014669 0 0 Z " fill="#0D0D0C" transform="translate(438,365)"/>
          <path d="M0 0 C1.98 0.99 1.98 0.99 4 2 C4 4.64 4 7.28 4 10 C1.04816899 7.04816899 0.91336012 4.04488053 0 0 Z " fill="#F4F3F0" transform="translate(542,320)"/>
          <path d="M0 0 C1.125 3.75 1.125 3.75 0 6 C-1.32 5.67 -2.64 5.34 -4 5 C-2.25 1.125 -2.25 1.125 0 0 Z " fill="#1A1A18" transform="translate(345,737)"/>
          <path d="M0 0 C2 1 2 1 3.1875 3.3125 C4.03624754 6.11989571 3.99928333 7.301935 3 10 C-0.00617269 6.99382731 0.40414684 4.17618402 0 0 Z " fill="#DDDDD9" transform="translate(416,686)"/>
          <path d="M0 0 C0.99 0 1.98 0 3 0 C3.33 2.64 3.66 5.28 4 8 C3.01 7.67 2.02 7.34 1 7 C0.67 4.69 0.34 2.38 0 0 Z " fill="#1B1C1A" transform="translate(271,539)"/>
          <path d="M0 0 C2.83374881 3.20336822 3.5205537 5.78087253 4 10 C0.06153846 5.69230769 0.06153846 5.69230769 -0.25 2.1875 C-0.1675 1.465625 -0.085 0.74375 0 0 Z " fill="#EBEAE7" transform="translate(507,301)"/>
          <path d="M0 0 C0.99 0 1.98 0 3 0 C3.33 2.31 3.66 4.62 4 7 C3.01 6.67 2.02 6.34 1 6 C0.67 4.02 0.34 2.04 0 0 Z " fill="#1F1F1C" transform="translate(446,294)"/>
          <path d="M0 0 C0.33 0 0.66 0 1 0 C1.75 3.25 1.75 3.25 2 7 C0.0625 9.4375 0.0625 9.4375 -2 11 C-1.34 7.37 -0.68 3.74 0 0 Z " fill="#232321" transform="translate(168,568)"/>
          <path d="M0 0 C0.33 0 0.66 0 1 0 C1.5745952 3.73486879 2 7.21293268 2 11 C1.34 11 0.68 11 0 11 C0 7.37 0 3.74 0 0 Z " fill="#0A0A09" transform="translate(658,540)"/>
          <path d="M0 0 C1.32 0.99 2.64 1.98 4 3 C3.34 5.31 2.68 7.62 2 10 C1.67 10 1.34 10 1 10 C0.67 6.7 0.34 3.4 0 0 Z " fill="#1C1C19" transform="translate(435,533)"/>
          <path d="M0 0 C1.32 0.66 2.64 1.32 4 2 C1.64046906 4.35953094 0.22104383 4.49141413 -3 5 C-2.01 3.35 -1.02 1.7 0 0 Z " fill="#1C1C1A" transform="translate(668,447)"/>
          <path d="M0 0 C2.125 0.9375 2.125 0.9375 4 2 C3.67 2.99 3.34 3.98 3 5 C1.35 4.67 -0.3 4.34 -2 4 C-2 3.01 -2 2.02 -2 1 C-1.34 0.67 -0.68 0.34 0 0 Z " fill="#21211E" transform="translate(197,384)"/>
      </svg>
